<?xml version="1.0" standalone="no"?>
<!DOCTYPE svg PUBLIC "-//W3C//DTD SVG 20010904//EN"
 "http://www.w3.org/TR/2001/REC-SVG-20010904/DTD/svg10.dtd">
<svg version="1.0" xmlns="http://www.w3.org/2000/svg"
 width="500.000000pt" height="500.000000pt" viewBox="0 0 500.000000 500.000000"
 preserveAspectRatio="xMidYMid meet">

<g transform="translate(0.000000,500.000000) scale(0.100000,-0.100000)"
fill="#000000" stroke="none">
<path d="M2059 4086 c-38 -28 -59 -53 -59 -70 0 -2 9 -2 20 -1 20 1 64 35 56
43 -3 2 4 13 15 25 16 18 25 38 17 37 -2 0 -24 -16 -49 -34z"/>
<path d="M3150 4090 c8 -5 11 -10 5 -10 -5 0 -1 -7 9 -15 11 -8 16 -15 11 -15
-4 0 0 -9 10 -20 18 -20 55 -28 55 -12 0 20 -64 82 -84 82 -17 0 -18 -2 -6
-10z m41 -17 c13 -16 12 -17 -3 -4 -17 13 -22 21 -14 21 2 0 10 -8 17 -17z
m24 -33 c3 -6 -1 -7 -9 -4 -18 7 -21 14 -7 14 6 0 13 -4 16 -10z"/>
<path d="M2176 4078 c4 -7 3 -8 -4 -4 -13 8 -52 -10 -52 -24 0 -15 33 -12 58
6 26 18 29 34 6 34 -9 0 -12 -5 -8 -12z"/>
<path d="M3055 4066 c17 -14 40 -26 53 -26 22 0 22 0 4 20 -10 11 -34 22 -53
26 l-34 5 30 -25z"/>
<path d="M1871 4021 c-31 -29 -41 -48 -18 -35 6 4 2 -3 -10 -15 -24 -23 -29
-46 -13 -56 6 -3 10 -1 10 4 0 6 5 10 11 9 15 -4 46 49 54 90 3 17 3 32 1 32
-2 0 -18 -13 -35 -29z m14 -11 c-3 -5 -12 -10 -18 -10 -7 0 -6 4 3 10 19 12
23 12 15 0z"/>
<path d="M3336 4023 c10 -40 29 -75 52 -96 20 -18 20 -18 27 3 8 25 -26 86
-46 82 -8 -2 -11 0 -7 4 9 8 -9 34 -23 34 -5 0 -6 -12 -3 -27z m55 -40 c12
-16 12 -17 -2 -6 -9 7 -20 9 -24 5 -5 -4 -5 -1 -1 6 9 16 11 15 27 -5z"/>
<path d="M2027 3993 c-10 -3 -16 -10 -14 -16 6 -18 62 -30 104 -22 l38 7 -28
15 c-16 8 -35 12 -43 9 -7 -3 -16 -1 -19 4 -6 10 -9 11 -38 3z"/>
<path d="M3175 3990 c-6 -10 1 -14 18 -11 5 1 5 -3 2 -9 -5 -8 -13 -6 -26 6
-18 16 -22 16 -52 2 l-32 -16 37 -7 c39 -7 72 -2 98 15 13 9 13 11 0 20 -19
13 -37 13 -45 0z"/>
<path d="M1693 3938 c-30 -34 -53 -72 -62 -105 -10 -33 0 -60 18 -49 6 4 9 12
6 17 -3 5 0 6 7 4 18 -7 47 52 55 111 3 24 4 44 1 44 -2 0 -14 -10 -25 -22z
m17 -33 c0 -12 -19 -12 -23 0 -4 9 -1 12 9 8 7 -3 14 -7 14 -8z m-23 -40 c0
-8 -4 -12 -9 -9 -5 3 -6 10 -3 15 9 13 12 11 12 -6z"/>
<path d="M3520 3941 c0 -11 5 -32 12 -48 6 -15 12 -35 12 -43 1 -8 6 -14 13
-13 7 2 10 -3 7 -10 -2 -7 5 -22 16 -32 18 -16 23 -17 31 -5 5 8 7 26 3 40 -8
35 -59 106 -73 102 -7 -1 -10 2 -7 7 4 5 2 12 -4 16 -5 3 -10 -3 -10 -14z m57
-66 c0 -8 -4 -12 -9 -9 -5 3 -6 10 -3 15 9 13 12 11 12 -6z"/>
<path d="M1862 3908 c-29 -14 -23 -32 12 -36 21 -3 26 0 20 10 -6 11 -5 11 9
0 13 -11 23 -11 52 -2 43 14 45 26 4 34 -43 8 -70 7 -97 -6z"/>
<path d="M3273 3913 c-13 -2 -23 -8 -23 -13 0 -11 57 -30 93 -30 22 0 28 4 23
16 -3 9 -6 20 -6 25 0 9 -45 10 -87 2z"/>
<path d="M3370 3903 c0 -5 5 -15 10 -23 7 -11 10 -11 10 -2 0 8 5 10 13 6 8
-5 8 -2 -2 9 -14 18 -31 23 -31 10z"/>
<path d="M3702 3768 c2 -58 8 -84 24 -105 20 -26 65 -48 50 -25 -3 6 -1 14 4
17 7 5 5 12 -7 22 -10 8 -12 12 -5 8 17 -9 15 25 -4 64 -16 32 -34 37 -43 10
-4 -12 -1 -12 15 1 19 14 19 14 0 -8 -11 -12 -20 -22 -20 -22 -7 0 -2 41 5 45
5 4 6 11 3 17 -5 7 -2 8 7 3 8 -5 5 2 -6 16 -11 13 -21 26 -23 29 -3 3 -2 -30
0 -72z"/>
<path d="M1525 3820 c3 -5 2 -10 -4 -10 -6 0 -15 -10 -22 -21 -7 -13 -7 -19
-1 -15 6 3 14 2 17 -4 4 -6 3 -10 -2 -9 -22 4 -32 -4 -43 -32 -11 -25 -11 -35
-1 -51 7 -12 8 -17 2 -13 -6 3 -11 -1 -11 -9 0 -9 5 -16 11 -16 5 0 7 -4 4
-10 -3 -5 0 -7 8 -4 25 9 55 78 63 142 6 54 4 62 -10 62 -10 0 -14 -4 -11 -10z
m-9 -96 c1 -9 0 -13 -4 -10 -3 4 -7 14 -8 22 -1 9 0 13 4 10 3 -4 7 -14 8 -22z
m-12 -50 c3 -8 2 -12 -4 -9 -6 3 -10 10 -10 16 0 14 7 11 14 -7z"/>
<path d="M1717 3789 c-37 -6 -67 -24 -67 -41 0 -6 7 -7 16 -4 8 3 12 2 9 -4
-3 -5 9 -9 29 -8 19 1 33 5 29 11 -3 5 3 6 16 2 11 -3 21 -3 21 2 0 5 9 9 20
10 11 1 29 8 41 16 19 14 18 15 -29 18 -28 2 -66 1 -85 -2z"/>
<path d="M3466 3791 c-4 -5 -1 -11 6 -13 7 -3 5 -7 -6 -11 -9 -4 -15 -3 -12 2
7 11 -18 21 -47 20 -16 0 -7 -8 27 -24 28 -13 53 -22 58 -19 4 3 8 0 8 -6 0
-7 16 -10 42 -8 72 5 57 48 -19 52 -12 1 -25 4 -29 9 -10 10 -22 9 -28 -2z
m94 -36 c0 -7 -30 -13 -34 -7 -3 4 4 9 15 9 10 1 19 0 19 -2z"/>
<path d="M2520 3660 c0 -51 3 -60 18 -60 15 0 18 6 14 30 -2 17 -2 30 2 30 3
0 12 -13 21 -30 9 -18 23 -30 35 -30 18 0 20 7 20 60 0 53 -2 60 -20 60 -15 0
-20 -7 -20 -27 l-1 -28 -17 28 c-9 15 -25 27 -34 27 -15 0 -18 -9 -18 -60z"/>
<path d="M2655 3709 c-4 -6 3 -13 15 -16 20 -5 22 -11 17 -49 -4 -38 -2 -44
14 -44 16 0 19 8 19 41 0 32 4 42 20 46 11 3 20 12 20 19 0 17 -95 20 -105 3z"/>
<path d="M2403 3703 c-26 -5 -27 -13 -13 -81 l11 -49 49 10 c33 6 50 15 50 25
0 11 -8 13 -35 9 -40 -7 -48 8 -10 17 38 10 32 34 -6 28 -22 -3 -30 -1 -25 7
4 6 18 11 32 11 15 0 24 6 24 15 0 15 -27 18 -77 8z"/>
<path d="M2796 3684 c-24 -24 -20 -80 6 -98 30 -21 54 -20 78 4 25 25 26 72 2
93 -23 21 -66 22 -86 1z m64 -44 c0 -33 -24 -50 -42 -32 -17 17 -1 62 22 62
16 0 20 -7 20 -30z"/>
<path d="M3874 3688 c3 -10 1 -20 -4 -23 -13 -8 -13 -155 -1 -155 5 0 8 -8 7
-17 0 -11 6 -18 16 -18 9 0 20 -4 25 -9 4 -5 3 -6 -4 -2 -6 3 -14 2 -17 -3 -4
-5 2 -8 11 -7 27 4 38 47 27 103 -7 40 -12 48 -29 45 -16 -2 -17 -1 -5 7 12 9
11 16 -8 53 -13 24 -21 35 -18 26z m20 -153 c-4 -8 -11 -15 -16 -15 -6 0 -5 6
2 15 7 8 14 15 16 15 2 0 1 -7 -2 -15z"/>
<path d="M1349 3669 c-8 -16 -8 -28 0 -48 10 -24 10 -24 -3 -7 -14 17 -16 14
-31 -39 -18 -61 -12 -114 14 -123 9 -3 11 0 6 8 -6 9 -4 11 4 6 17 -11 41 23
40 54 -1 14 2 33 6 43 4 9 4 29 0 45 -5 15 -7 37 -6 49 3 30 -16 38 -30 12z"/>
<path d="M2301 3671 c-9 -6 -11 -19 -7 -42 6 -30 5 -32 -6 -16 -30 43 -33 45
-55 37 l-22 -9 20 -60 c15 -45 24 -58 35 -54 11 4 14 14 10 32 l-6 26 16 -22
c22 -31 40 -19 37 25 l-2 37 11 -32 c6 -18 17 -33 24 -33 18 0 18 16 -2 73
-16 47 -27 55 -53 38z"/>
<path d="M1591 3660 c-18 -4 -37 -13 -41 -20 -4 -6 -10 -11 -14 -11 -15 1 -35
-12 -30 -20 3 -5 0 -9 -6 -9 -6 0 -8 -4 -5 -10 19 -30 134 3 203 58 l24 18
-49 1 c-26 1 -63 -2 -82 -7z m-7 -49 c15 -6 16 -9 5 -13 -8 -3 -20 1 -27 8
-14 15 -7 17 22 5z"/>
<path d="M2935 3637 c-25 -60 -28 -84 -11 -90 9 -4 17 1 21 14 9 27 29 19 33
-14 2 -15 10 -27 18 -27 13 0 18 17 15 46 -1 7 5 14 14 18 29 11 17 45 -25 66
-21 11 -42 20 -45 20 -3 0 -12 -15 -20 -33z m60 -18 c10 -15 -1 -23 -20 -15
-9 3 -13 10 -10 16 8 13 22 13 30 -1z"/>
<path d="M3543 3650 c27 -21 42 -26 32 -11 -3 5 -1 12 4 15 4 3 8 -2 7 -12 0
-9 4 -17 9 -17 6 0 9 4 7 8 -1 5 2 6 7 2 6 -3 7 -13 4 -23 -3 -9 -3 -14 2 -10
4 4 14 0 22 -8 19 -18 69 -15 89 7 13 14 13 18 0 28 -21 18 -114 41 -165 41
l-44 0 26 -20z m122 -48 c-3 -3 -11 0 -18 7 -9 10 -8 11 6 5 10 -3 15 -9 12
-12z"/>
<path d="M3071 3581 c-8 -14 -6 -25 10 -45 27 -34 16 -47 -13 -16 -14 15 -23
19 -26 11 -6 -19 5 -39 32 -56 19 -13 29 -14 45 -5 27 14 27 40 0 74 -21 27
-11 38 11 11 16 -19 30 -19 30 -1 0 18 -38 46 -62 46 -9 0 -22 -9 -27 -19z"/>
<path d="M3725 3590 c-3 -5 -2 -10 4 -10 5 0 13 5 16 10 3 6 2 10 -4 10 -5 0
-13 -4 -16 -10z"/>
<path d="M2073 3565 c-43 -30 -19 -115 33 -115 14 0 38 10 54 22 29 21 29 22
13 49 -13 22 -20 26 -35 18 -10 -5 -18 -17 -18 -25 0 -8 5 -12 10 -9 6 3 10 1
10 -5 0 -21 -33 -24 -47 -4 -19 25 -13 47 15 54 13 3 24 10 25 15 3 17 -37 17
-60 0z"/>
<path d="M3170 3495 c-16 -24 -30 -48 -30 -54 0 -21 22 -22 37 -2 12 17 18 19
29 10 10 -8 11 -16 3 -31 -8 -15 -8 -23 1 -32 12 -12 29 6 65 66 15 26 15 29
0 35 -10 3 -21 0 -25 -7 -4 -7 -15 -10 -24 -7 -13 5 -15 11 -6 26 13 25 13 28
-5 35 -10 3 -25 -10 -45 -39z"/>
<path d="M1549 3523 c-1 -5 -1 -12 1 -18 1 -5 -4 -4 -11 3 -16 15 -49 16 -49
1 0 -5 -4 -8 -10 -4 -24 15 -111 -45 -116 -81 -4 -23 38 -27 83 -7 38 18 133
94 133 107 0 9 -30 7 -31 -1z m-114 -61 c-3 -3 -11 0 -18 7 -9 10 -8 11 6 5
10 -3 15 -9 12 -12z m41 -14 c4 -7 4 -10 -1 -6 -4 4 -14 3 -21 -3 -8 -7 -14
-6 -20 2 -4 7 -3 9 4 5 6 -3 13 -2 17 4 8 13 12 13 21 -2z"/>
<path d="M3689 3496 c19 -20 36 -36 38 -36 7 0 2 10 -13 24 -8 9 -11 16 -6 16
6 0 19 -16 31 -35 11 -19 27 -35 36 -35 8 0 15 -4 15 -9 0 -13 55 -24 79 -16
28 9 16 39 -30 71 -22 15 -42 24 -45 21 -4 -3 -13 1 -21 9 -8 8 -27 14 -41 13
-15 0 -38 3 -52 7 -24 6 -23 5 9 -30z m158 -53 c0 -10 -4 -10 -11 -3 -18 18
-27 11 -16 -12 11 -22 10 -22 -4 -4 -9 10 -13 22 -10 27 7 13 41 6 41 -8z"/>
<path d="M1980 3495 c-10 -13 -9 -19 5 -35 20 -22 10 -25 -29 -11 -18 7 -28 6
-36 -4 -16 -20 57 -110 76 -94 11 9 10 16 -3 36 -17 25 -17 26 7 18 14 -4 30
-10 36 -12 6 -2 16 2 22 10 9 10 3 24 -27 60 -33 40 -41 44 -51 32z"/>
<path d="M4007 3451 c-22 -78 -21 -94 3 -116 11 -10 20 -22 20 -28 0 -5 -9 1
-19 14 -11 13 -23 21 -27 17 -4 -4 -1 -15 7 -25 8 -9 9 -14 2 -10 -9 6 -9 -1
-2 -25 5 -18 9 -34 9 -36 0 -2 5 0 12 4 6 4 8 3 4 -4 -10 -17 13 -25 30 -11 9
7 13 21 11 31 -3 10 -1 18 4 18 15 0 10 78 -7 94 -8 9 -11 16 -5 16 17 0 13
21 -6 37 -10 8 -12 12 -5 8 16 -8 15 5 -1 44 l-14 32 -16 -60z"/>
<path d="M1194 3443 c-25 -86 -28 -142 -10 -185 20 -48 41 -48 61 -2 21 51 17
164 -6 164 -5 0 -7 -6 -5 -12 1 -7 1 -10 -1 -5 -3 4 -10 4 -16 0 -7 -3 -4 3 6
14 12 14 16 29 11 47 -11 44 -22 39 -40 -21z m16 -79 c0 -8 -19 -13 -24 -6 -3
5 1 9 9 9 8 0 15 -2 15 -3z m17 -30 c-3 -3 -12 -4 -19 -1 -8 3 -5 6 6 6 11 1
17 -2 13 -5z"/>
<path d="M2735 3430 c-3 -5 1 -10 10 -10 9 0 13 5 10 10 -3 6 -8 10 -10 10 -2
0 -7 -4 -10 -10z"/>
<path d="M3276 3399 c-29 -34 -33 -45 -24 -57 11 -12 18 -8 51 28 20 24 36 48
34 53 -7 23 -27 16 -61 -24z"/>
<path d="M1864 3389 c-3 -6 12 -29 34 -52 35 -35 43 -39 57 -27 14 12 12 17
-22 52 -38 39 -57 46 -69 27z"/>
<path d="M3327 3355 c-42 -37 -46 -43 -32 -55 12 -10 19 -10 27 -2 8 8 18 6
36 -9 22 -17 28 -18 46 -5 31 20 30 38 -1 78 l-28 35 -48 -42z m63 -31 c0 -16
-16 -19 -25 -4 -8 13 4 32 16 25 5 -4 9 -13 9 -21z"/>
<path d="M1415 3335 c-22 -8 -41 -15 -43 -15 -2 0 0 -5 4 -12 4 -6 3 -8 -4 -4
-12 7 -62 -13 -62 -26 0 -4 4 -8 8 -8 5 0 9 -7 9 -16 0 -15 -2 -14 -14 1 -12
18 -13 18 -33 0 -11 -10 -17 -22 -14 -26 3 -5 1 -9 -5 -9 -5 0 -9 -9 -8 -20 2
-25 48 -28 71 -4 9 8 16 13 16 9 0 -3 14 3 30 15 17 12 27 26 24 32 -4 6 -2 8
3 5 14 -9 37 19 27 34 -4 7 -3 9 4 5 6 -3 20 7 32 24 24 34 16 37 -45 15z
m-15 -49 c0 -2 -8 -10 -17 -17 -16 -13 -17 -12 -4 4 13 16 21 21 21 13z"/>
<path d="M3770 3340 c0 -4 13 -22 29 -39 16 -17 27 -31 24 -31 -8 0 51 -51 84
-71 42 -26 89 -23 85 6 -4 26 -34 68 -47 65 -5 -1 -9 -6 -7 -12 1 -5 -2 -7 -7
-3 -6 3 -8 12 -5 19 6 15 -52 50 -66 41 -5 -3 -10 0 -12 5 -4 13 -78 31 -78
20z"/>
<path d="M1819 3330 c-9 -5 -24 -21 -33 -36 -17 -24 -17 -27 1 -46 10 -11 30
-29 45 -39 l27 -19 26 35 c33 43 28 78 -15 100 -34 17 -30 17 -51 5z m41 -45
c7 -8 10 -22 6 -30 -5 -14 -8 -14 -31 1 -20 13 -23 19 -14 30 15 18 24 18 39
-1z"/>
<path d="M1046 3243 c-16 -99 0 -253 27 -253 4 0 6 -4 2 -9 -7 -12 32 -34 45
-26 6 3 10 11 10 16 0 6 -5 7 -12 3 -7 -4 -8 -3 -4 5 4 6 11 9 16 6 24 -15 10
132 -16 173 -8 12 -12 22 -10 22 3 0 -6 23 -20 50 -14 28 -26 50 -28 50 -2 0
-6 -17 -10 -37z m36 -50 c-6 -2 -10 -9 -7 -14 4 -5 -1 -6 -10 -2 -13 5 -14 7
-3 14 7 5 18 8 23 8 6 0 4 -3 -3 -6z"/>
<path d="M4176 3264 c-4 -9 -4 -19 -1 -22 2 -3 7 3 11 12 4 9 4 19 1 22 -2 3
-7 -3 -11 -12z"/>
<path d="M3433 3208 c-45 -33 -49 -62 -7 -52 15 4 24 2 24 -5 0 -6 11 -16 25
-23 49 -22 71 27 38 83 -21 36 -27 35 -80 -3z m67 -34 c0 -8 -7 -14 -15 -14
-15 0 -21 21 -9 33 10 9 24 -2 24 -19z"/>
<path d="M4159 3230 c-1 -3 -1 -8 0 -12 0 -5 -4 -8 -10 -8 -6 0 -9 -9 -6 -20
3 -11 1 -18 -3 -15 -10 6 -32 -54 -24 -66 3 -5 0 -9 -6 -9 -8 0 -11 -20 -9
-57 3 -94 28 -118 68 -67 29 37 45 120 37 197 -6 56 -10 65 -27 64 -10 -1 -20
-4 -20 -7z m-10 -156 c4 3 8 -1 8 -9 0 -8 -3 -13 -5 -10 -3 3 -10 -1 -16 -8
-6 -7 -10 -10 -9 -8 2 2 -2 10 -9 18 -8 11 -7 12 6 7 11 -4 15 -2 13 7 -2 8
-2 11 0 6 3 -4 8 -5 12 -3z m11 -99 c0 -2 -6 -7 -12 -11 -7 -4 -10 -4 -6 1 4
4 0 14 -10 22 -15 13 -15 13 6 3 12 -6 22 -13 22 -15z"/>
<path d="M2490 3210 c0 -5 5 -10 11 -10 5 0 7 5 4 10 -3 6 -8 10 -11 10 -2 0
-4 -4 -4 -10z"/>
<path d="M1713 3181 c-8 -12 0 -28 31 -68 41 -53 56 -54 56 -6 0 12 9 27 20
33 37 20 23 37 -39 47 -49 8 -60 7 -68 -6z m67 -42 c0 -6 -4 -7 -10 -4 -5 3
-10 11 -10 16 0 6 5 7 10 4 6 -3 10 -11 10 -16z"/>
<path d="M3860 3140 c6 -11 13 -20 16 -20 3 0 2 5 -2 12 -4 6 -3 8 4 5 5 -4 8
-15 5 -25 -6 -25 73 -141 116 -169 46 -31 91 -31 91 0 0 37 -51 117 -75 117
-5 0 -3 -5 5 -11 13 -9 13 -10 0 -6 -8 2 -14 9 -13 15 3 12 -91 77 -134 93
-21 8 -23 7 -13 -11z"/>
<path d="M1353 3143 c-7 -3 -13 -9 -13 -14 0 -6 5 -7 10 -4 16 10 11 -1 -7
-16 -10 -8 -14 -9 -10 -2 4 6 3 14 -3 18 -5 3 -10 1 -10 -4 0 -6 -5 -10 -11
-8 -6 1 -13 -8 -15 -20 -2 -14 2 -23 14 -25 14 -3 13 -5 -4 -10 -19 -5 -22 -2
-19 18 3 31 -6 30 -47 -3 -48 -40 -68 -66 -63 -81 3 -7 1 -11 -4 -8 -10 6 -21
-16 -21 -43 0 -12 9 -17 31 -19 26 -2 30 1 25 14 -5 13 -4 15 7 5 11 -9 20 -6
41 10 25 20 26 22 9 36 -10 8 -12 12 -5 8 22 -11 50 5 72 43 13 20 23 42 24
48 1 7 8 19 16 28 14 18 3 37 -17 29z m-88 -93 c3 -6 -1 -7 -9 -4 -18 7 -21
14 -7 14 6 0 13 -4 16 -10z m20 -20 c-3 -5 -1 -10 6 -10 7 0 10 -3 6 -6 -9 -9
-28 6 -22 17 4 5 8 9 11 9 3 0 2 -4 -1 -10z m-41 -61 c-3 -5 -10 -7 -15 -3 -5
3 -7 10 -3 15 3 5 10 7 15 3 5 -3 7 -10 3 -15z m-34 7 c0 -2 -7 -7 -16 -10 -8
-3 -12 -2 -9 4 6 10 25 14 25 6z m-25 -34 c-3 -3 -11 0 -18 7 -9 10 -8 11 6 5
10 -3 15 -9 12 -12z"/>
<path d="M2985 3100 c-3 -5 1 -10 10 -10 9 0 13 5 10 10 -3 6 -8 10 -10 10 -2
0 -7 -4 -10 -10z"/>
<path d="M3498 3087 c-40 -19 -46 -25 -37 -40 8 -13 14 -15 29 -7 27 14 37 -6
15 -30 -10 -11 -15 -26 -11 -36 6 -15 9 -15 29 5 13 11 30 21 39 21 32 0 40
25 22 69 -9 23 -21 41 -28 40 -6 0 -32 -10 -58 -22z m65 -32 c8 -19 -13 -31
-23 -14 -9 14 -4 29 10 29 4 0 10 -7 13 -15z"/>
<path d="M1663 3068 c-13 -18 -37 -78 -32 -82 2 -2 26 -13 53 -25 39 -17 51
-19 58 -9 12 20 10 26 -11 33 -28 9 -15 38 15 32 16 -3 24 2 27 15 5 17 2 19
-42 22 -8 1 -16 7 -19 14 -5 16 -37 16 -49 0z m37 -32 c0 -15 -14 -35 -21 -30
-15 9 -10 34 6 34 8 0 15 -2 15 -4z"/>
<path d="M943 2900 c5 -100 28 -190 49 -190 4 0 8 -5 8 -11 0 -14 30 -38 48
-39 20 0 36 51 22 74 -7 12 -8 16 -1 11 6 -3 11 1 11 9 0 24 -31 96 -42 96 -5
0 -7 4 -4 8 7 11 -36 84 -53 90 -9 3 -11 0 -6 -8 5 -9 4 -11 -4 -6 -8 6 -9 11
-2 20 8 10 5 18 -10 32 l-22 19 6 -105z m64 -4 c0 -14 -33 -14 -46 0 -3 4 2 4
11 1 10 -3 20 -2 23 3 8 14 12 12 12 -4z m-13 -42 c3 -8 2 -12 -4 -9 -6 3 -10
10 -10 16 0 14 7 11 14 -7z m25 -120 c-12 -15 -29 -10 -29 9 0 7 4 6 10 -3 9
-14 14 -7 11 13 -1 5 3 6 9 2 8 -5 8 -11 -1 -21z m42 -38 c-10 -12 -17 -13
-31 -3 -11 6 -17 13 -15 16 3 2 11 -2 20 -9 12 -10 16 -9 21 4 4 9 9 15 12 12
3 -3 -1 -12 -7 -20z"/>
<path d="M4282 2988 c-7 -7 -12 -17 -12 -24 0 -6 -6 -14 -13 -17 -19 -7 -80
-126 -73 -143 3 -8 2 -13 -3 -10 -11 7 -22 -62 -15 -91 4 -13 11 -23 16 -23 5
0 6 -4 3 -10 -3 -5 -1 -10 5 -10 37 0 78 53 97 126 9 38 18 214 11 214 -2 0
-9 -5 -16 -12z m-49 -121 c-4 -7 -8 -15 -9 -19 -1 -5 -2 -11 -3 -14 0 -3 -6
-2 -12 1 -7 5 -5 13 5 24 9 10 13 21 9 26 -5 4 -2 5 5 1 7 -4 9 -13 5 -19z
m42 3 c3 -6 -1 -7 -9 -4 -18 7 -21 14 -7 14 6 0 13 -4 16 -10z m-34 -87 c2 1
3 0 1 -2 -7 -12 -39 -9 -39 4 0 10 5 11 17 5 10 -5 19 -8 21 -7z m14 -32 c3
-5 2 -12 -3 -15 -5 -3 -9 1 -9 9 0 17 3 19 12 6z"/>
<path d="M3537 2942 c-26 -28 -22 -78 7 -97 45 -30 96 1 96 58 0 50 -70 76
-103 39z m71 -40 c3 -16 -3 -23 -23 -28 -38 -9 -52 15 -23 39 26 21 42 18 46
-11z"/>
<path d="M1606 2913 c-4 -21 -9 -46 -12 -55 -7 -22 15 -24 30 -2 10 13 19 14
48 6 20 -6 39 -7 42 -4 15 15 2 31 -31 39 -28 6 -39 14 -41 31 -5 36 -29 25
-36 -15z"/>
<path d="M2240 2920 c0 -5 5 -10 11 -10 5 0 7 5 4 10 -3 6 -8 10 -11 10 -2 0
-4 -4 -4 -10z"/>
<path d="M3250 2924 c-8 -1 -37 -6 -63 -9 l-48 -6 16 -25 c15 -23 14 -25 -12
-49 -15 -13 -34 -25 -40 -26 -7 -1 -19 -2 -25 -3 -7 0 -13 -6 -13 -13 0 -12
-96 -93 -111 -93 -5 -1 -22 -11 -37 -24 l-28 -23 21 -36 c13 -22 27 -34 33
-30 19 11 121 87 135 100 32 30 131 103 141 103 5 0 16 -9 24 -20 14 -20 16
-16 48 62 19 45 36 86 37 90 4 8 -46 9 -78 2z"/>
<path d="M3920 2923 c0 -17 25 -73 33 -73 5 0 7 -7 3 -15 -6 -16 42 -67 55
-59 4 2 10 0 13 -5 9 -13 -19 -7 -38 8 -24 20 -20 7 18 -52 43 -68 95 -105 87
-63 -1 5 5 4 13 -4 19 -15 21 -24 4 -14 -7 4 -8 3 -4 -4 10 -17 33 -15 40 4 3
8 2 13 -3 10 -5 -3 -14 1 -21 9 -11 13 -10 14 4 9 12 -4 16 0 16 15 0 30 -42
101 -59 101 -8 0 -11 3 -8 7 9 8 -72 83 -90 83 -7 0 -13 4 -13 9 0 5 -11 16
-25 25 -14 9 -25 13 -25 9z m85 -113 c-3 -5 -13 -6 -21 -3 -12 4 -13 8 -3 14
15 9 32 2 24 -11z m51 -25 c1 -9 -4 -11 -14 -7 -10 4 -12 7 -4 10 7 2 9 9 5
15 -3 7 -2 8 2 4 5 -4 10 -14 11 -22z m48 -54 c-2 -3 -12 3 -22 13 -16 17 -16
18 5 5 12 -7 20 -15 17 -18z m-9 -41 c-3 -5 -12 -10 -18 -10 -7 0 -6 4 3 10
19 12 23 12 15 0z"/>
<path d="M1240 2871 c-36 -27 -72 -61 -80 -75 -7 -14 -17 -26 -21 -26 -15 0
-31 -43 -36 -92 -4 -51 -1 -54 44 -37 40 15 91 74 124 144 25 53 27 62 15 80
-12 18 -12 22 -1 22 8 0 12 -4 9 -8 -2 -4 0 -10 6 -14 5 -3 10 0 10 9 0 8 3
21 6 30 10 26 -7 18 -76 -33z m25 -11 c3 -6 -1 -7 -9 -4 -18 7 -21 14 -7 14 6
0 13 -4 16 -10z"/>
<path d="M1585 2795 c-3 -8 -7 -22 -10 -31 -7 -23 13 -54 36 -54 14 0 25 10
32 30 6 17 15 30 20 30 9 0 6 -18 -8 -52 -5 -13 -2 -18 9 -18 31 0 49 73 24
98 -22 22 -49 14 -61 -18 -6 -16 -15 -30 -19 -30 -10 0 -10 3 2 34 8 21 6 26
-6 26 -8 0 -17 -7 -19 -15z"/>
<path d="M3573 2798 c-25 -12 -35 -41 -24 -72 5 -11 6 -27 4 -33 -3 -9 6 -13
26 -13 35 0 45 12 36 41 -5 15 -10 17 -20 9 -19 -15 -31 6 -14 26 20 24 54 14
54 -18 0 -33 13 -47 25 -28 16 25 11 59 -10 80 -22 22 -43 24 -77 8z"/>
<path d="M2834 2766 c-15 -40 21 -80 54 -60 37 24 21 74 -25 74 -13 0 -26 -6
-29 -14z"/>
<path d="M2745 2702 c-3 -7 -9 -10 -15 -7 -5 3 -10 2 -10 -4 0 -5 -17 -20 -37
-32 -21 -13 -44 -31 -51 -41 -7 -10 -17 -18 -23 -18 -5 0 -27 -12 -49 -26
l-40 -27 -17 22 -18 22 -24 -22 c-12 -12 -19 -24 -14 -28 5 -3 18 -21 28 -38
11 -18 22 -33 26 -33 12 0 97 51 109 65 7 8 16 15 21 15 5 0 49 26 98 57 l88
57 -16 27 c-16 29 -47 35 -56 11z"/>
<path d="M873 2690 c4 -14 7 -33 7 -44 0 -12 5 -16 15 -12 13 5 14 2 4 -15 -6
-11 -7 -28 -3 -37 3 -9 8 -26 9 -37 5 -35 24 -75 35 -75 6 0 8 -5 5 -11 -20
-31 97 -133 124 -106 15 15 14 30 -1 21 -10 -6 -10 -4 -2 7 17 21 11 78 -15
129 -22 44 -120 160 -136 160 -4 0 -17 10 -28 23 l-20 22 6 -25z m81 -116 c3
-8 2 -12 -4 -9 -6 3 -10 10 -10 16 0 14 7 11 14 -7z m113 -166 c2 -17 0 -19
-7 -8 -5 8 -6 18 -4 22 8 12 10 10 11 -14z"/>
<path d="M4291 2635 c-45 -46 -70 -79 -65 -86 4 -8 3 -9 -4 -5 -13 8 -56 -69
-47 -84 3 -5 1 -11 -5 -15 -13 -8 -13 -85 1 -85 5 0 7 -5 3 -11 -10 -16 35 -1
68 24 15 11 25 24 22 29 -3 4 0 8 7 8 9 0 9 3 0 14 -9 11 -8 14 6 12 18 -1 52
57 58 98 1 12 7 32 12 46 10 26 26 130 20 130 -2 0 -36 -34 -76 -75z m54 5 c3
-6 -1 -7 -9 -4 -18 7 -21 14 -7 14 6 0 13 -4 16 -10z m-75 -149 c-5 -11 -15
-23 -21 -27 -6 -3 -3 5 6 20 20 30 30 35 15 7z m-59 -8 c13 -16 12 -17 -3 -4
-17 13 -22 21 -14 21 2 0 10 -8 17 -17z m90 8 c-7 -5 -11 -13 -7 -19 3 -6 2
-13 -2 -16 -5 -3 -8 5 -7 17 3 28 3 27 18 27 9 0 8 -3 -2 -9z"/>
<path d="M1247 2641 c-35 -36 -55 -66 -51 -72 5 -8 3 -9 -5 -5 -8 5 -14 0 -18
-13 -3 -12 -10 -21 -15 -21 -5 0 -6 -4 -3 -10 3 -5 1 -10 -5 -10 -6 0 -8 -4
-5 -10 3 -5 1 -10 -5 -10 -6 0 -8 -4 -5 -10 3 -5 2 -10 -4 -10 -13 0 -24 -73
-16 -110 9 -40 33 -39 76 3 59 56 79 100 103 219 25 126 21 131 -47 59z m22
-15 c9 -11 9 -16 -1 -22 -7 -4 -10 -4 -6 1 4 4 3 14 -3 22 -6 7 -9 13 -6 13 2
0 10 -6 16 -14z m-24 -116 c3 -6 -1 -7 -9 -4 -18 7 -21 14 -7 14 6 0 13 -4 16
-10z m-14 -33 c-8 -8 -14 -7 -23 2 -11 10 -9 11 6 5 15 -6 17 -4 11 6 -6 9 -4
11 4 5 9 -5 10 -10 2 -18z m-10 -34 c12 -16 12 -17 -2 -6 -9 7 -20 9 -24 5 -5
-4 -5 -1 -1 6 9 16 11 15 27 -5z m-6 -22 c3 -5 2 -12 -3 -15 -5 -3 -9 1 -9 9
0 17 3 19 12 6z"/>
<path d="M3935 2658 c10 -73 16 -92 33 -113 16 -18 16 -19 0 -7 -15 12 -16 10
-6 -22 6 -19 15 -33 19 -30 5 3 6 -3 2 -12 -4 -12 -3 -15 5 -10 8 5 10 2 6 -9
-11 -27 55 -113 77 -100 7 5 10 4 5 -3 -3 -6 3 -14 15 -17 28 -9 37 6 37 64 1
48 -46 158 -66 154 -5 -1 -9 4 -8 11 1 12 -89 116 -114 131 -7 4 -8 -9 -5 -37z
m28 -23 c-3 -9 -8 -14 -10 -11 -3 3 -2 9 2 15 9 16 15 13 8 -4z m27 -15 c0 -5
-5 -10 -11 -10 -5 0 -7 5 -4 10 3 6 8 10 11 10 2 0 4 -4 4 -10z m26 -65 c1 -9
-4 -11 -14 -7 -10 4 -12 7 -4 10 7 2 9 9 5 15 -3 7 -2 8 2 4 5 -4 10 -14 11
-22z m48 -162 c5 -12 4 -13 -7 -5 -8 7 -16 10 -19 7 -2 -3 -5 1 -5 9 0 18 24
10 31 -11z"/>
<path d="M2396 2674 c-20 -19 -20 -38 -2 -54 23 -19 61 -8 64 18 7 44 -32 67
-62 36z"/>
<path d="M1660 2645 c0 -19 -4 -35 -10 -35 -5 0 -10 11 -10 25 0 16 -6 25 -15
25 -11 0 -14 -7 -9 -24 3 -13 1 -27 -5 -30 -7 -5 -11 5 -11 28 0 25 -4 36 -15
36 -11 0 -15 -12 -15 -50 l0 -50 60 0 60 0 0 55 c0 42 -3 55 -15 55 -10 0 -15
-11 -15 -35z"/>
<path d="M3552 2633 c2 -10 13 -19 26 -21 29 -4 28 -20 -3 -32 -14 -5 -25 -16
-25 -24 0 -12 12 -15 58 -13 l57 2 3 53 3 52 -61 0 c-53 0 -61 -2 -58 -17z
m96 -40 c-4 -22 -22 -20 -26 1 -2 10 3 16 13 16 10 0 15 -7 13 -17z"/>
<path d="M2235 2535 c-55 -41 -130 -96 -167 -122 -38 -26 -68 -51 -68 -55 0
-16 27 -7 77 27 29 19 55 35 57 35 6 0 79 45 173 107 29 18 55 38 58 44 7 10
-12 40 -24 38 -3 0 -51 -34 -106 -74z"/>
<path d="M1570 2529 c0 -16 33 -39 58 -40 25 -1 25 -2 -10 -17 -36 -16 -48
-35 -30 -46 5 -3 32 6 61 19 43 21 52 29 49 47 -3 20 -12 25 -65 34 -35 6 -63
8 -63 3z"/>
<path d="M3554 2488 c5 -26 2 -40 -9 -51 -8 -9 -15 -22 -15 -30 0 -11 10 -12
63 -2 49 9 63 15 65 30 1 11 -5 25 -15 31 -10 5 -36 21 -57 34 l-39 23 7 -35z
m51 -38 c3 -5 -1 -10 -9 -10 -9 0 -16 5 -16 10 0 6 4 10 9 10 6 0 13 -4 16
-10z"/>
<path d="M1304 2422 c4 -7 2 -12 -4 -12 -12 0 -76 -99 -72 -112 1 -4 -2 -8 -7
-8 -13 0 -50 -98 -56 -151 -5 -38 -3 -48 10 -53 13 -5 15 -10 6 -19 -18 -22 8
-47 37 -36 14 5 20 13 16 20 -4 7 -3 9 3 6 6 -4 19 5 28 19 12 18 13 24 4 19
-8 -3 -6 0 3 8 24 20 43 70 27 76 -8 2 -8 6 2 12 18 11 26 224 8 235 -8 4 -10
3 -5 -4z m-28 -105 c1 -7 -10 -13 -25 -14 l-26 -1 23 12 c12 7 20 15 17 19 -3
4 -2 5 2 2 4 -3 8 -11 9 -18z m34 -51 c0 -2 -7 -7 -16 -10 -8 -3 -12 -2 -9 4
6 10 25 14 25 6z"/>
<path d="M3932 2423 c0 -5 -2 -16 -6 -25 -5 -10 -6 -57 -2 -105 6 -107 7 -113
17 -113 4 0 6 -8 5 -17 -1 -13 6 -18 26 -17 15 1 26 -4 25 -10 -1 -6 4 -10 11
-8 8 1 11 -2 7 -8 -3 -6 -12 -7 -18 -3 -15 9 -47 15 -47 8 0 -8 32 -57 52 -79
9 -10 22 -15 29 -11 8 5 10 4 5 -3 -14 -23 9 -11 28 14 14 20 17 38 14 86 -2
33 -9 63 -14 66 -5 4 -10 14 -12 22 -1 8 -8 28 -14 43 -8 22 -13 25 -20 15 -7
-9 -8 -8 -4 5 4 12 -9 41 -35 83 -39 60 -51 74 -47 57z m28 -37 c0 -2 -7 -7
-16 -10 -8 -3 -12 -2 -9 4 6 10 25 14 25 6z m77 -161 c0 -8 -4 -12 -9 -9 -5 3
-6 10 -3 15 9 13 12 11 12 -6z"/>
<path d="M1653 2401 c-39 -12 -53 -21 -53 -34 0 -16 5 -18 33 -12 l32 7 -22
-24 c-27 -29 -32 -74 -7 -64 9 4 36 11 61 18 32 8 43 15 39 25 -3 8 -6 17 -6
19 0 2 -12 1 -27 -2 l-28 -7 24 26 c18 20 22 31 15 45 -8 17 -12 17 -61 3z"/>
<path d="M3520 2357 c0 -8 10 -19 23 -25 21 -10 20 -11 -10 -11 -40 -1 -44
-22 -8 -41 31 -17 26 -24 -8 -11 -20 8 -26 7 -30 -8 -3 -15 7 -22 51 -36 45
-14 56 -15 63 -3 14 22 10 33 -18 50 l-28 17 33 1 c25 0 35 6 41 23 7 19 4 24
-33 39 -50 21 -76 22 -76 5z"/>
<path d="M4350 2347 c-14 -12 -26 -20 -28 -17 -1 3 -31 -17 -66 -45 -41 -32
-62 -55 -58 -64 3 -8 1 -12 -5 -8 -5 3 -19 -4 -31 -17 -15 -18 -17 -27 -9 -36
9 -8 8 -10 -4 -5 -20 7 -28 -3 -31 -39 -1 -14 -5 -26 -8 -26 -3 0 -6 -9 -7
-20 -1 -11 3 -20 8 -20 6 0 7 -4 4 -10 -3 -6 5 -10 18 -10 29 0 80 24 70 33
-3 4 1 7 9 7 21 0 63 50 95 114 28 55 75 178 70 183 -2 1 -14 -7 -27 -20z
m-36 -55 c3 -5 -1 -9 -9 -9 -8 0 -12 4 -9 9 3 4 7 8 9 8 2 0 6 -4 9 -8z m-40
-111 c14 -15 15 -21 4 -27 -7 -4 -10 -3 -5 1 4 5 0 17 -10 27 -9 10 -14 18
-11 18 3 0 13 -9 22 -19z m-129 -40 c3 -5 2 -12 -3 -15 -5 -3 -9 1 -9 9 0 17
3 19 12 6z m35 -36 c-8 -10 -9 -15 -2 -15 6 0 15 8 21 18 9 15 10 15 8 -5 0
-12 -5 -19 -9 -17 -4 3 -8 0 -8 -7 0 -7 -3 -9 -7 -6 -3 4 -11 3 -18 -3 -8 -6
-11 -2 -11 15 0 13 3 22 7 19 4 -2 10 0 14 6 3 5 9 10 12 10 3 0 0 -7 -7 -15z
m70 1 c0 -2 -8 -10 -17 -17 -16 -13 -17 -12 -4 4 13 16 21 21 21 13z"/>
<path d="M870 2351 c0 -5 4 -20 9 -33 43 -108 56 -138 80 -176 14 -23 31 -40
38 -38 7 3 10 -1 7 -9 -3 -8 10 -24 33 -39 40 -28 80 -35 67 -13 -6 9 -5 9 8
0 8 -7 18 -10 21 -6 11 10 8 51 -3 58 -6 4 -8 10 -5 15 3 5 1 20 -6 32 -16 30
-59 82 -59 71 0 -4 -8 4 -18 19 -15 22 -21 25 -31 15 -10 -9 -11 -9 -6 4 7 18
-24 49 -45 46 -8 -2 -22 -7 -30 -12 -13 -8 -13 -7 -1 8 7 9 18 14 25 10 28
-15 -12 16 -46 36 -21 13 -38 18 -38 12z m48 -96 c-3 -3 -9 2 -12 12 -6 14 -5
15 5 6 7 -7 10 -15 7 -18z m37 15 c-3 -5 -12 -10 -18 -10 -7 0 -6 4 3 10 19
12 23 12 15 0z m-11 -36 c3 -8 2 -12 -4 -9 -6 3 -10 10 -10 16 0 14 7 11 14
-7z m85 -17 c-2 -1 -13 -9 -24 -17 -19 -14 -19 -14 -6 3 7 9 18 17 24 17 6 0
8 -1 6 -3z m50 -45 c-1 -15 -2 -15 -6 1 -2 9 -9 14 -15 11 -7 -4 -8 -2 -4 5
10 15 26 4 25 -17z m-14 -42 c3 -6 -1 -7 -9 -4 -18 7 -21 14 -7 14 6 0 13 -4
16 -10z"/>
<path d="M1690 2259 c-54 -24 -52 -23 -45 -41 5 -14 13 -13 61 6 34 13 53 26
52 35 -4 22 -19 21 -68 0z"/>
<path d="M2079 2243 c-1 -4 -1 -12 0 -16 1 -5 -4 -5 -11 -1 -7 5 -31 10 -53
11 -32 3 -43 -1 -53 -18 -13 -20 -12 -21 17 -14 42 9 219 11 227 2 4 -4 19 -7
33 -7 14 0 58 -12 96 -26 39 -13 75 -26 80 -27 6 -1 12 -4 15 -7 3 -3 16 -11
30 -18 l25 -13 -25 22 c-28 24 -116 70 -127 67 -5 -1 -17 3 -28 9 -11 6 -49
17 -83 24 -54 10 -65 10 -73 -2 -7 -11 -9 -11 -9 -1 0 7 -4 10 -10 7 -5 -3
-19 -1 -30 5 -11 6 -21 7 -21 3z"/>
<path d="M3040 2233 c0 -5 -15 -9 -34 -10 -63 -3 -171 -49 -232 -99 -23 -18
-14 -15 41 12 39 18 75 37 80 41 6 5 23 9 40 10 16 1 31 7 33 13 2 5 8 7 13 4
17 -10 90 7 82 19 -4 7 0 6 10 -1 11 -10 41 -13 99 -11 46 2 89 0 96 -5 18
-11 27 0 13 17 -14 18 -169 21 -190 4 -12 -9 -13 -9 -7 1 5 8 -1 12 -18 12
-14 0 -26 -3 -26 -7z"/>
<path d="M3870 2165 c-31 -80 -52 -158 -47 -176 3 -10 1 -17 -4 -13 -5 3 -10
-10 -10 -28 -5 -106 8 -162 45 -197 l23 -21 26 26 c25 25 30 39 30 86 0 10 4
15 9 12 7 -4 6 50 -1 109 -1 5 -7 5 -13 1 -10 -6 -10 -4 0 8 10 13 10 29 -4
89 -9 40 -22 86 -29 103 l-13 31 -12 -30z m-36 -335 c-6 -6 -10 -3 -10 10 0
13 4 16 10 10 7 -7 7 -13 0 -20z"/>
<path d="M1349 2165 c-3 -28 -4 -33 -12 -41 -4 -4 1 -17 10 -28 15 -17 15 -19
1 -8 -14 11 -18 9 -27 -20 -6 -18 -15 -55 -20 -81 -8 -46 -8 -47 10 -31 17 15
19 15 25 0 3 -9 10 -13 15 -10 5 3 6 -2 2 -12 -5 -14 -8 -13 -18 6 -14 26 -29
12 -19 -17 4 -13 3 -15 -4 -4 -6 8 -12 9 -16 3 -7 -11 3 -95 13 -102 3 -3 7
-14 9 -25 2 -11 15 -31 28 -45 l25 -25 24 30 c42 52 58 164 28 198 -10 11 -12
17 -5 13 8 -5 12 0 12 13 0 12 -5 21 -11 21 -5 0 -7 5 -4 10 3 6 3 16 -1 22
-5 7 -9 19 -10 28 -2 8 -5 24 -8 35 -2 11 -5 24 -5 28 -1 5 -5 6 -10 2 -5 -3
-13 0 -17 6 -4 8 -3 9 4 5 13 -8 15 4 6 28 -8 20 -24 21 -25 1z m44 -101 c1
-4 -6 -8 -15 -10 -14 -2 -15 1 -5 17 11 17 14 16 20 -7z m-23 -40 c0 -8 -19
-13 -24 -6 -3 5 1 9 9 9 8 0 15 -2 15 -3z m-30 -24 c8 -5 11 -10 5 -10 -5 0
-17 5 -25 10 -8 5 -10 10 -5 10 6 0 17 -5 25 -10z m47 -233 c0 -8 -6 -14 -14
-14 -9 0 -10 4 -2 14 6 7 12 13 14 13 1 0 2 -6 2 -13z"/>
<path d="M2012 2161 c-6 -4 -30 -6 -53 -4 -30 1 -47 -3 -56 -15 -8 -9 -12 -11
-8 -4 4 8 -2 12 -20 12 -20 0 -26 -4 -21 -16 3 -8 2 -13 -2 -10 -4 3 -13 -4
-20 -14 -10 -17 -9 -18 21 -9 31 10 80 20 105 21 6 1 12 4 12 7 0 10 210 2
285 -11 39 -7 76 -12 83 -11 6 0 12 -3 12 -7 0 -4 21 -13 48 -21 26 -7 70 -26
97 -42 35 -20 45 -24 33 -10 -40 44 -219 120 -259 110 -12 -3 -17 -1 -13 5 5
7 -4 9 -24 6 -17 -2 -29 -1 -26 4 3 4 -19 9 -48 10 -29 1 -72 3 -94 4 -23 1
-46 -1 -52 -5z"/>
<path d="M3065 2159 c-101 -15 -165 -30 -165 -39 0 -5 -6 -7 -14 -4 -7 3 -20
-1 -27 -9 -8 -7 -20 -12 -27 -9 -6 2 -12 0 -12 -5 0 -6 -6 -10 -13 -10 -16 0
-103 -58 -113 -76 -4 -6 1 -5 12 4 26 22 122 66 177 81 25 6 44 15 41 20 -3 4
2 5 11 2 8 -4 21 -2 28 3 6 5 75 10 152 11 106 2 160 -2 221 -16 64 -14 81
-15 77 -5 -3 7 -9 13 -15 13 -5 0 -7 4 -3 9 3 5 1 12 -4 15 -14 9 -42 -5 -34
-17 3 -6 1 -7 -6 -3 -6 4 -9 12 -6 17 4 5 0 10 -7 10 -44 4 -85 10 -95 13 -6
3 -14 0 -17 -7 -3 -9 -5 -9 -5 1 -1 14 -62 14 -156 1z"/>
<path d="M2078 2085 c-3 -3 -38 -7 -78 -10 -40 -2 -77 -8 -83 -14 -5 -5 -16
-7 -23 -4 -8 3 -14 0 -14 -6 0 -6 -7 -8 -15 -5 -8 4 -15 1 -15 -5 0 -19 5 -26
15 -23 5 2 1 -6 -9 -17 -26 -28 -2 -27 25 2 12 12 18 16 14 8 -6 -11 -4 -13 9
-8 10 4 22 7 27 7 6 0 8 3 6 8 -6 9 27 10 198 9 186 0 204 -1 199 -8 -2 -4 13
-10 34 -15 43 -9 42 -8 64 -18 9 -4 22 -4 29 0 7 4 9 3 6 -3 -4 -6 12 -19 36
-29 23 -11 42 -25 43 -31 1 -7 2 -19 3 -26 1 -16 43 -37 71 -37 35 0 69 22 79
52 12 34 77 67 183 94 41 10 65 20 61 27 -3 6 -1 7 5 3 6 -3 83 -7 171 -9 140
-2 158 0 148 13 -11 13 -10 13 7 0 11 -8 21 -13 23 -12 3 2 8 0 11 -4 4 -4 1
-4 -7 1 -9 5 -12 4 -7 -3 4 -7 15 -12 24 -12 9 0 46 -14 82 -32 36 -18 69 -34
73 -36 5 -2 1 11 -8 29 -21 41 -61 79 -87 80 -21 2 -28 3 -48 12 -8 4 -30 6
-47 3 -18 -2 -30 1 -27 5 5 8 -13 10 -106 11 -50 1 -61 -2 -54 -14 4 -7 4 -10
-1 -6 -4 4 -15 2 -24 -5 -14 -11 -15 -10 -1 7 15 19 13 19 -44 12 -79 -9 -147
-26 -141 -36 3 -5 -5 -6 -17 -2 -16 4 -19 2 -13 -8 5 -8 4 -11 -3 -6 -6 3 -29
-1 -52 -10 -31 -13 -38 -19 -28 -26 9 -7 6 -8 -10 -5 -17 4 -32 -4 -58 -29
-19 -19 -31 -40 -28 -46 4 -6 3 -8 -4 -4 -6 3 -21 2 -35 -3 -18 -7 -30 -6 -46
5 -11 8 -26 12 -33 8 -7 -5 -8 -3 -4 5 9 14 -21 51 -41 51 -7 0 -13 4 -13 9 0
9 -54 35 -66 31 -4 -1 -10 3 -13 8 -11 18 -145 53 -216 57 -38 3 -81 7 -95 10
-14 3 -28 3 -32 0z"/>
<path d="M1820 2032 c0 -4 6 -14 13 -22 10 -12 9 -12 -6 0 -16 12 -20 12 -27
0 -5 -8 -7 -17 -4 -21 2 -4 -2 -9 -10 -12 -7 -3 -16 -14 -18 -25 -6 -20 -5
-20 24 -2 37 22 62 56 48 65 -6 4 -8 11 -5 16 4 5 1 9 -4 9 -6 0 -11 -4 -11
-8z"/>
<path d="M930 1975 c0 -10 54 -75 63 -75 5 0 5 5 1 12 -4 7 -3 8 5 4 8 -6 9
-11 2 -20 -8 -9 -5 -18 9 -31 17 -15 22 -16 37 -4 17 13 17 13 1 -7 -17 -20
-17 -21 11 -48 18 -17 34 -25 42 -21 7 5 10 4 6 -2 -9 -14 19 -37 33 -28 6 4
9 1 8 -7 -2 -7 5 -12 14 -12 10 1 16 -2 13 -6 -6 -10 35 -19 83 -19 36 0 49
17 37 47 -5 9 -9 23 -11 31 -4 23 -57 72 -72 66 -7 -2 -10 0 -7 5 8 12 -56 52
-73 45 -7 -3 -11 -1 -8 4 7 11 -53 33 -66 25 -6 -4 -5 -10 3 -15 12 -7 12 -9
0 -9 -11 0 -11 -3 -1 -15 7 -8 17 -12 23 -8 6 4 7 1 3 -6 -6 -9 -13 -8 -27 5
-10 9 -16 20 -14 24 3 5 -1 11 -7 13 -10 4 -10 6 0 6 26 2 10 18 -30 30 -24 7
-51 15 -60 17 -10 3 -18 3 -18 -1z m55 -27 c5 4 5 1 1 -6 -6 -10 -11 -10 -22
-1 -8 6 -14 14 -14 16 0 3 6 0 13 -6 8 -6 18 -7 22 -3z m122 -34 c-3 -3 -12
-4 -19 -1 -8 3 -5 6 6 6 11 1 17 -2 13 -5z m-42 -74 c-3 -5 -12 -10 -18 -10
-7 0 -6 4 3 10 19 12 23 12 15 0z m45 -16 c0 -8 -19 -13 -24 -6 -3 5 1 9 9 9
8 0 15 -2 15 -3z m145 -3 c3 -5 2 -12 -3 -15 -5 -3 -9 1 -9 9 0 17 3 19 12 6z
m-85 -51 c6 -11 8 -20 6 -20 -3 0 -10 9 -16 20 -6 11 -8 20 -6 20 3 0 10 -9
16 -20z"/>
<path d="M4262 1968 c-23 -5 -40 -13 -37 -19 3 -5 0 -6 -8 -3 -8 3 -31 -2 -51
-10 -20 -8 -39 -15 -43 -15 -3 1 -9 -4 -13 -11 -4 -6 -14 -12 -23 -14 -10 -1
-24 -11 -33 -22 -8 -10 -13 -13 -9 -7 4 9 1 11 -10 7 -10 -4 -12 -10 -6 -18 5
-6 11 -15 13 -21 1 -5 7 -9 11 -7 5 1 6 -2 2 -8 -5 -8 -11 -8 -21 1 -7 6 -11
15 -8 20 11 19 -24 8 -42 -13 -13 -14 -14 -19 -4 -14 8 4 5 -1 -8 -11 -13 -10
-25 -35 -29 -56 -5 -35 -4 -37 21 -37 18 0 25 4 20 12 -5 7 -3 8 7 2 22 -14
38 -13 74 2 26 10 33 19 29 32 -5 13 -4 14 4 3 8 -11 16 -9 44 12 52 40 115
115 76 91 -7 -4 -8 -3 -4 5 4 6 11 9 16 6 12 -7 62 63 54 77 -4 6 -3 8 4 4 6
-3 14 -1 17 5 10 16 4 16 -43 7z m-21 -41 c-6 -8 -7 -18 -3 -22 4 -5 1 -5 -6
-1 -10 6 -10 11 -1 22 6 8 14 14 16 14 3 0 0 -6 -6 -13z m-244 -140 c0 -7 -9
-13 -19 -13 -18 0 -18 1 -2 13 10 7 18 13 19 13 1 0 2 -6 2 -13z m126 -2 c-3
-9 -8 -14 -10 -11 -3 3 -2 9 2 15 9 16 15 13 8 -4z"/>
<path d="M1499 1888 c-2 -24 -4 -95 -4 -158 0 -139 19 -204 71 -250 45 -39 60
-38 78 5 15 34 21 159 8 151 -4 -2 -7 8 -8 22 -1 32 -54 152 -66 152 -5 0 -7
4 -3 9 8 14 -34 40 -54 34 -13 -4 -13 -3 -2 5 8 6 21 7 30 4 14 -5 14 -3 2 11
-7 9 -18 14 -24 10 -5 -3 -7 -1 -4 5 8 11 -1 42 -12 42 -4 0 -9 -19 -12 -42z
m51 -52 c0 -2 -7 -7 -16 -10 -8 -3 -12 -2 -9 4 6 10 25 14 25 6z"/>
<path d="M3720 1918 c0 -7 -21 -44 -46 -83 -24 -38 -47 -81 -51 -95 -3 -14
-10 -30 -15 -37 -6 -7 -11 -30 -11 -52 -1 -21 -5 -37 -9 -34 -12 7 -9 -75 3
-118 9 -27 16 -36 27 -31 10 3 13 1 8 -6 -4 -7 -1 -12 8 -12 19 0 67 44 70 63
1 8 7 21 13 28 21 27 33 95 33 195 0 115 -9 194 -21 194 -5 0 -9 -6 -9 -12z
m-60 -152 c0 -2 -8 -10 -17 -17 -16 -13 -17 -12 -4 4 13 16 21 21 21 13z m14
-37 c-3 -5 -10 -7 -15 -3 -5 3 -7 10 -3 15 3 5 10 7 15 3 5 -3 7 -10 3 -15z
m53 -117 c-10 -10 -14 -22 -10 -25 3 -4 4 -7 1 -7 -3 0 -12 8 -19 17 -8 9 -9
14 -3 10 7 -4 17 0 24 8 7 8 15 15 18 15 3 0 -2 -8 -11 -18z"/>
<path d="M1933 1738 c2 -7 12 -39 21 -70 13 -45 21 -58 36 -58 13 0 22 9 26
28 10 47 11 48 21 12 6 -24 16 -36 31 -38 17 -3 23 4 32 40 6 24 15 55 20 71
8 24 7 27 -14 27 -20 0 -25 -7 -31 -42 l-8 -43 -10 43 c-7 30 -15 42 -28 42
-18 0 -21 -7 -32 -65 -4 -22 -11 -11 -21 38 -5 19 -13 27 -27 27 -13 0 -19 -5
-16 -12z"/>
<path d="M2150 1680 l0 -70 60 0 c47 0 60 3 60 15 0 10 -10 15 -34 15 -19 0
-38 5 -41 10 -4 6 8 10 30 10 29 0 36 3 33 18 -2 11 -14 18 -36 20 -18 2 -30
8 -26 13 3 5 10 7 15 3 17 -10 59 5 59 21 0 12 -14 15 -60 15 l-60 0 0 -70z"/>
<path d="M2333 1733 c-3 -10 -14 -40 -25 -66 -10 -26 -18 -50 -18 -52 0 -10
31 -5 50 7 16 10 24 10 40 0 22 -14 50 -16 50 -4 0 4 -10 35 -23 67 -17 45
-29 61 -45 63 -14 2 -24 -3 -29 -15z m33 -70 c-10 -10 -19 5 -10 18 6 11 8 11
12 0 2 -7 1 -15 -2 -18z"/>
<path d="M2458 1743 c-1 -5 -2 -36 -2 -70 l-1 -63 53 0 c40 0 52 4 52 15 0 10
-10 15 -30 15 -30 0 -30 1 -30 55 0 48 -2 55 -20 55 -11 0 -21 -3 -22 -7z"/>
<path d="M2552 1733 c2 -10 13 -19 26 -21 19 -3 22 -9 22 -53 0 -42 3 -49 20
-49 17 0 20 7 20 50 0 43 3 50 20 50 13 0 20 7 20 20 0 18 -7 20 -66 20 -57 0
-65 -2 -62 -17z"/>
<path d="M2700 1680 c0 -63 2 -70 20 -70 15 0 20 7 20 25 0 20 5 25 25 25 20
0 25 -5 25 -25 0 -18 5 -25 20 -25 18 0 20 7 20 70 0 63 -2 70 -20 70 -15 0
-20 -7 -20 -25 0 -20 -5 -25 -25 -25 -20 0 -25 5 -25 25 0 18 -5 25 -20 25
-18 0 -20 -7 -20 -70z"/>
<path d="M2877 1733 c-25 -29 -26 -83 -1 -107 23 -23 91 -21 104 3 5 11 10 22
10 25 0 11 -36 6 -47 -5 -19 -19 -43 -2 -43 31 0 33 24 50 43 31 13 -13 47
-15 47 -2 0 38 -84 55 -113 24z"/>
<path d="M3036 1734 c-24 -23 -29 -59 -14 -91 12 -25 18 -28 63 -28 45 0 51 3
63 28 26 54 -6 107 -63 107 -18 0 -41 -7 -49 -16z m74 -34 c14 -26 -4 -63 -28
-58 -18 3 -28 39 -18 64 8 20 34 17 46 -6z"/>
<path d="M3180 1680 c0 -68 1 -70 25 -70 22 0 25 5 25 33 l0 32 21 -32 c12
-18 29 -33 40 -33 17 0 19 8 19 70 0 63 -2 70 -19 70 -15 0 -21 -8 -23 -32
l-3 -33 -18 33 c-12 23 -25 32 -42 32 -24 0 -25 -2 -25 -70z"/>
<path d="M1715 1668 c4 -88 6 -99 13 -95 4 3 8 -13 9 -34 0 -22 4 -47 9 -57 4
-9 9 -26 11 -37 13 -71 89 -182 144 -211 32 -16 53 -18 45 -5 -4 5 3 7 14 4
15 -4 20 0 20 15 0 12 -5 24 -10 27 -8 5 -7 11 1 21 9 11 8 18 -2 31 -10 11
-10 14 -1 9 6 -4 12 -4 12 1 0 15 -26 83 -35 90 -4 5 -5 2 0 -6 5 -9 4 -12 -3
-7 -6 4 -8 14 -5 23 5 12 3 14 -7 8 -9 -5 -11 -4 -6 4 15 23 -150 211 -173
197 -6 -4 -9 -1 -6 7 3 7 -3 21 -13 30 -18 17 -19 16 -17 -15z m56 -60 c-10
-11 -11 -9 -5 6 6 15 4 17 -6 11 -9 -6 -11 -4 -5 4 5 9 10 10 18 2 8 -8 7 -14
-2 -23z m13 -19 c-4 -8 1 -9 17 -5 20 6 21 5 6 -4 -19 -12 -41 -4 -32 11 4 5
8 9 11 9 3 0 2 -5 -2 -11z m91 -97 c-3 -3 -11 0 -18 7 -9 10 -8 11 6 5 10 -3
15 -9 12 -12z m-48 -99 c-4 -3 -1 -13 6 -21 11 -13 9 -14 -10 -1 -16 9 -19 16
-10 21 15 9 23 10 14 1z m128 -32 c-6 -5 -25 10 -25 20 0 5 6 4 14 -3 8 -7 12
-15 11 -17z m-48 -58 c0 -8 -6 -9 -19 -2 -10 5 -18 11 -18 12 0 2 8 3 18 3 10
0 19 -6 19 -13z m33 -13 c-9 -6 -9 -9 1 -13 8 -3 4 -4 -8 -4 -15 1 -19 5 -13
13 6 6 7 14 3 18 -4 4 1 4 11 0 12 -5 14 -9 6 -14z m-58 -5 c3 0 9 -3 13 -7 4
-3 -1 -5 -12 -3 -10 2 -21 4 -25 4 -5 1 -8 6 -8 12 0 6 5 7 13 2 6 -4 15 -8
19 -8z"/>
<path d="M3484 1654 c-27 -25 -48 -50 -46 -55 1 -6 -2 -8 -7 -5 -12 8 -33 -18
-23 -29 4 -5 2 -5 -5 -1 -8 4 -23 -9 -40 -36 -15 -24 -34 -50 -42 -58 -40 -41
-68 -158 -55 -222 4 -22 11 -28 30 -28 14 0 22 4 19 10 -3 5 0 7 8 4 21 -8
121 91 113 111 -3 9 -2 14 3 11 11 -7 23 22 14 36 -4 7 -1 8 7 3 10 -6 12 -4
7 9 -4 10 -3 15 3 11 6 -3 10 -4 10 -1 0 3 11 50 25 105 14 56 24 113 22 128
-2 16 0 34 6 41 19 25 -1 11 -49 -34z m-107 -146 c-2 -12 -10 -24 -18 -26 -11
-3 -12 -2 -1 6 8 5 13 12 13 16 -2 15 -1 26 4 26 3 0 3 -10 2 -22z m55 10
c-17 -17 -15 -28 6 -22 14 5 15 4 2 -5 -21 -14 -37 4 -20 24 7 8 15 15 18 15
3 0 1 -5 -6 -12z m44 -32 c0 -14 -5 -21 -9 -17 -4 4 -5 15 -1 24 9 24 12 21
10 -7z m-126 -66 c0 -5 -2 -10 -4 -10 -3 0 -8 5 -11 10 -3 6 -1 10 4 10 6 0
11 -4 11 -10z m31 -113 c-6 -8 -7 -18 -3 -22 4 -5 1 -5 -6 -1 -10 6 -10 11 -1
22 6 8 14 14 16 14 3 0 0 -6 -6 -13z"/>
<path d="M1103 1599 c6 -10 15 -19 20 -19 4 0 5 5 1 12 -4 7 -3 8 4 4 7 -4 12
-13 12 -20 0 -18 35 -48 44 -39 4 5 6 1 4 -7 -1 -8 3 -14 10 -15 8 0 20 -8 27
-19 8 -10 19 -15 26 -10 7 4 10 3 5 -4 -10 -17 28 -34 43 -19 10 9 11 8 6 -4
-8 -22 14 -36 27 -18 8 11 9 10 5 -3 -12 -34 127 -62 190 -37 26 10 27 12 8
19 -17 7 -17 9 -3 9 11 1 15 6 12 16 -4 8 -10 13 -14 10 -4 -3 -7 3 -6 13 0 9
-5 16 -12 14 -8 -1 -11 2 -7 8 8 13 -85 72 -103 65 -7 -2 -11 -1 -8 4 3 5 -6
11 -19 14 -14 2 -28 0 -31 -4 -5 -9 -39 -7 -50 4 -4 3 5 4 20 1 14 -2 26 0 26
4 0 5 -17 12 -37 16 -58 9 -75 8 -68 -6 4 -7 1 -6 -7 3 -7 9 -30 16 -53 17
-22 0 -50 3 -62 6 -20 4 -21 3 -10 -15z m377 -99 c-18 -12 -30 -13 -30 -2 0 4
10 9 22 9 18 2 20 0 8 -7z"/>
<path d="M4137 1614 c-3 -3 -45 -8 -93 -10 -48 -2 -90 -7 -93 -11 -3 -5 -18
-9 -32 -10 -14 -1 -53 -12 -85 -25 -48 -19 -59 -27 -58 -45 1 -13 -2 -20 -7
-18 -4 3 -10 1 -14 -5 -4 -6 -11 -8 -16 -4 -13 8 -40 -27 -34 -43 2 -7 0 -13
-5 -13 -5 0 -7 -7 -4 -15 4 -8 10 -15 16 -15 5 0 6 6 3 13 -4 6 -1 5 7 -3 27
-32 141 -20 121 13 -3 6 -1 7 6 3 6 -4 9 -12 6 -17 -4 -5 6 -4 22 3 37 16 36
15 28 28 -6 9 -9 9 -15 0 -5 -8 -7 -4 -7 12 1 13 7 25 13 25 6 0 11 -7 10 -16
0 -9 5 -15 12 -13 8 1 11 -2 7 -9 -5 -7 0 -7 16 1 13 7 28 19 32 26 4 8 15 14
22 14 8 0 15 5 15 10 0 6 6 10 13 10 8 0 24 12 38 27 13 14 19 23 12 19 -6 -3
-14 -2 -17 3 -4 5 5 8 19 7 17 -2 33 7 55 30 17 19 27 34 22 34 -5 0 -11 -3
-15 -6z m-101 -66 c4 -7 3 -8 -4 -4 -7 4 -12 2 -12 -5 0 -7 -3 -10 -6 -6 -6 5
3 27 11 27 2 0 7 -5 11 -12z m-230 -25 c-2 -10 2 -22 8 -26 7 -6 6 -7 -4 -4
-14 3 -21 23 -13 40 7 13 11 8 9 -10z m64 -47 c0 -2 -8 -10 -17 -17 -16 -13
-17 -12 -4 4 13 16 21 21 21 13z m-116 -22 c3 -8 2 -12 -4 -9 -6 3 -10 10 -10
16 0 14 7 11 14 -7z m-26 -19 c-3 -3 -9 2 -12 12 -6 14 -5 15 5 6 7 -7 10 -15
7 -18z"/>
<path d="M3746 1504 c-5 -14 -4 -15 9 -4 17 14 19 20 6 20 -5 0 -12 -7 -15
-16z"/>
<path d="M1989 1455 c8 -19 19 -35 24 -35 4 0 6 -4 2 -9 -3 -5 0 -15 7 -23 7
-7 24 -33 37 -58 29 -54 121 -173 129 -166 2 3 14 -6 25 -20 10 -14 25 -23 32
-20 8 2 16 -2 20 -11 4 -13 8 -14 17 -5 7 7 17 12 23 12 5 0 3 -4 -5 -10 -20
-13 -9 -21 40 -27 30 -4 45 -2 51 8 26 41 -6 126 -72 191 -22 21 -39 36 -39
32 0 -3 -9 4 -21 17 -11 13 -17 18 -13 10 4 -9 3 -12 -4 -7 -5 3 -13 0 -16 -6
-3 -7 -3 -3 -1 8 4 15 -2 26 -21 39 -18 11 -24 13 -19 4 3 -8 0 -7 -7 2 -12
15 -130 80 -143 79 -3 0 -18 6 -34 14 l-28 15 16 -34z m68 -30 c0 -8 -4 -12
-9 -9 -5 3 -6 10 -3 15 9 13 12 11 12 -6z m153 -94 c3 -2 -3 -1 -12 2 -11 4
-22 -1 -30 -12 -7 -9 -20 -21 -28 -26 -8 -4 -3 5 13 22 15 16 24 33 20 38 -7
8 22 -11 37 -24z m-112 -23 c-2 -7 3 -12 10 -10 8 1 11 -2 7 -8 -5 -8 -11 -8
-21 1 -7 6 -11 15 -8 20 8 13 14 11 12 -3z m172 -48 c0 -5 -2 -10 -4 -10 -3 0
-8 5 -11 10 -3 6 -1 10 4 10 6 0 11 -4 11 -10z m34 -6 c3 -8 2 -12 -4 -9 -6 3
-10 10 -10 16 0 14 7 11 14 -7z m-93 -41 c13 -16 12 -17 -3 -4 -17 13 -22 21
-14 21 2 0 10 -8 17 -17z m-9 -20 c10 -9 18 -21 18 -27 0 -6 -7 0 -16 12 -15
22 -41 32 -28 10 4 -7 3 -8 -5 -4 -6 4 -9 12 -6 17 9 13 16 11 37 -8z m35 -48
c0 -8 -4 -12 -9 -9 -5 3 -6 10 -3 15 9 13 12 11 12 -6z"/>
<path d="M3157 1436 c-59 -29 -111 -57 -115 -61 -4 -5 -2 -5 4 -2 6 3 11 0 11
-8 0 -11 -4 -12 -13 -4 -9 7 -24 2 -56 -21 -24 -18 -42 -36 -41 -41 2 -5 -3
-8 -10 -6 -6 1 -11 -6 -11 -15 1 -10 -4 -14 -12 -11 -10 4 -12 0 -8 -11 4 -11
2 -16 -7 -14 -21 4 -60 -81 -57 -122 3 -34 4 -35 48 -34 52 0 143 41 136 60
-3 8 1 11 9 8 12 -5 35 22 32 38 -1 3 2 10 7 15 5 5 6 3 2 -4 -11 -19 9 -16
25 4 9 11 10 14 2 9 -9 -5 -11 -2 -7 8 3 9 10 14 14 11 10 -6 50 43 50 61 0 8
3 14 8 14 7 0 25 28 67 106 21 40 36 74 32 74 -1 -1 -50 -25 -110 -54z m73 -8
c0 -4 -4 -8 -10 -8 -5 0 -6 -8 -3 -17 6 -15 5 -16 -9 -3 -9 9 -12 17 -6 19 6
2 4 7 -3 12 -10 6 -7 8 9 6 12 0 22 -5 22 -9z m-124 -93 c2 -12 -2 -12 -17 -5
-23 13 -25 22 -2 13 12 -5 14 -3 8 8 -5 8 -4 11 0 6 5 -4 10 -14 11 -22z
m-129 -210 c0 -8 -4 -12 -9 -9 -5 3 -6 10 -3 15 9 13 12 11 12 -6z"/>
<path d="M1515 1271 c-11 -5 -23 -7 -26 -5 -3 2 -35 -3 -70 -10 l-64 -13 33
-17 c18 -9 38 -14 44 -10 6 4 8 3 5 -3 -5 -8 103 -64 133 -69 3 0 18 -6 35
-13 16 -7 40 -10 52 -8 12 2 20 0 17 -4 -3 -5 29 -9 70 -9 43 0 76 4 76 10 0
5 6 7 14 4 7 -3 26 6 42 20 l29 26 -25 21 c-14 11 -19 18 -12 14 28 -14 9 7
-28 31 -22 15 -46 24 -55 20 -9 -3 -14 -2 -11 3 3 5 -8 11 -25 15 -44 9 -210
6 -234 -3z m49 -9 c3 -5 -1 -9 -9 -9 -8 0 -12 4 -9 9 3 4 7 8 9 8 2 0 6 -4 9
-8z m-78 -14 c4 -7 3 -8 -4 -4 -7 4 -12 2 -12 -5 0 -7 -3 -10 -6 -6 -6 5 3 27
11 27 2 0 7 -5 11 -12z m9 -56 c-3 -3 -11 0 -18 7 -9 10 -8 11 6 5 10 -3 15
-9 12 -12z m375 -36 c0 -2 -8 -10 -17 -17 -16 -13 -17 -12 -4 4 13 16 21 21
21 13z m-85 -16 c-3 -5 -1 -10 6 -10 7 0 10 -3 6 -6 -9 -9 -28 6 -22 17 4 5 8
9 11 9 3 0 2 -4 -1 -10z"/>
<path d="M3483 1270 c-18 -4 -40 -13 -48 -20 -8 -7 -15 -10 -15 -6 0 12 -49
-26 -65 -51 -16 -24 -16 -26 6 -46 l22 -21 -5 22 c-4 12 -1 25 4 29 7 4 8 1 3
-7 -6 -10 -4 -12 9 -7 11 5 15 3 10 -5 -5 -8 -2 -9 10 -5 11 4 15 3 11 -4 -4
-6 -13 -8 -21 -5 -8 3 -14 1 -14 -4 0 -37 144 -40 253 -5 118 39 209 85 166
85 -7 0 -9 3 -6 6 4 4 12 2 19 -4 10 -8 20 -6 38 8 l25 20 -27 0 c-15 0 -37 4
-50 9 -13 5 -57 12 -98 16 -72 7 -74 7 -60 -11 14 -18 14 -18 -2 -5 -17 12
-23 9 -19 -12 1 -5 -3 -6 -9 -2 -8 5 -7 11 1 21 10 12 2 14 -47 13 -33 -1 -74
-5 -91 -9z m17 -16 c0 -8 -19 -13 -24 -6 -3 5 1 9 9 9 8 0 15 -2 15 -3z m-80
-27 c0 -2 -8 -11 -18 -20 -15 -14 -19 -15 -19 -2 0 8 4 12 8 9 4 -2 10 0 14 6
6 10 15 14 15 7z m100 -82 c0 -2 -9 -3 -19 -2 -11 0 -18 5 -15 9 4 6 34 0 34
-7z m-76 -13 c3 -5 -1 -9 -9 -9 -8 0 -12 4 -9 9 3 4 7 8 9 8 2 0 6 -4 9 -8z
m91 -2 c-3 -5 -12 -10 -18 -10 -7 0 -6 4 3 10 19 12 23 12 15 0z"/>
<path d="M2586 1079 c-16 -23 -11 -53 7 -42 6 4 8 0 4 -10 -3 -10 -2 -17 2
-17 5 0 12 6 14 13 4 10 6 10 6 0 1 -20 29 -15 41 6 15 29 13 33 -12 25 -21
-6 -21 -6 -5 10 9 10 15 22 12 27 -11 17 -54 9 -69 -12z"/>
<path d="M2135 1060 c3 -5 1 -10 -5 -10 -6 0 -8 -4 -5 -10 3 -6 -1 -7 -10 -3
-14 5 -14 8 -3 15 9 7 7 8 -7 4 -11 -3 -32 -8 -47 -12 -16 -3 -26 -9 -24 -13
3 -4 -7 -8 -21 -9 -20 -2 -84 -30 -113 -50 -2 -2 2 -7 10 -12 8 -6 10 -10 5
-10 -6 0 -16 5 -23 12 -16 16 -16 -4 0 -23 7 -7 5 -7 -6 2 -17 16 -21 16 -52
-3 -40 -24 -45 -43 -8 -34 16 4 23 3 19 -3 -4 -7 5 -9 25 -7 17 2 33 0 36 -5
6 -10 206 -12 253 -3 17 4 28 10 25 15 -3 5 2 6 10 3 38 -15 145 63 152 111 3
21 -40 47 -55 32 -10 -9 -12 -9 -9 3 2 12 -12 16 -75 18 -53 2 -77 -1 -72 -8z
m205 -34 c0 -2 -8 -10 -17 -17 -16 -13 -17 -12 -4 4 13 16 21 21 21 13z m-270
-126 c0 -5 -5 -10 -11 -10 -5 0 -7 5 -4 10 3 6 8 10 11 10 2 0 4 -4 4 -10z"/>
<path d="M2930 1048 c-19 -13 -35 -29 -38 -35 -2 -7 14 -31 36 -52 54 -54 143
-81 266 -81 95 0 256 18 256 29 0 4 -26 20 -57 36 -32 17 -59 33 -61 38 -2 4
-8 7 -13 7 -6 0 -8 -4 -5 -8 2 -4 -4 -8 -14 -8 -13 0 -16 4 -9 12 11 14 -93
64 -141 67 -16 1 -30 5 -30 10 0 4 -35 7 -79 7 -64 0 -84 -4 -111 -22z m231
-15 c11 -15 11 -16 0 -6 -7 6 -21 9 -30 6 -14 -4 -14 -3 -1 6 8 6 16 11 16 11
1 0 8 -8 15 -17z m44 -11 c-3 -3 -11 0 -18 7 -9 10 -8 11 6 5 10 -3 15 -9 12
-12z m-270 -2 c-3 -5 -14 -10 -23 -9 -14 0 -13 2 3 9 27 11 27 11 20 0z m360
-79 c3 -5 2 -12 -3 -15 -5 -3 -9 1 -9 9 0 17 3 19 12 6z m82 2 c-4 -3 -1 -13
6 -22 11 -14 10 -14 -5 -2 -16 12 -16 31 -1 31 4 0 3 -3 0 -7z"/>
</g>
</svg>
