<svg width="21" height="20" viewBox="0 0 21 20" fill="none" xmlns="http://www.w3.org/2000/svg">
<path d="M18.7143 8.21429H12.6429C12.5481 8.21429 12.4573 8.17666 12.3903 8.10968C12.3233 8.0427 12.2857 7.95186 12.2857 7.85714V1.78571C12.2857 0.799554 11.4862 0 10.5 0C9.51384 0 8.71429 0.799554 8.71429 1.78571V7.85714C8.71429 7.95186 8.67666 8.0427 8.60968 8.10968C8.5427 8.17666 8.45186 8.21429 8.35714 8.21429H2.28571C1.29955 8.21429 0.5 9.01384 0.5 10C0.5 10.9862 1.29955 11.7857 2.28571 11.7857H8.35714C8.45186 11.7857 8.5427 11.8233 8.60968 11.8903C8.67666 11.9573 8.71429 12.0481 8.71429 12.1429V18.2143C8.71429 19.2004 9.51384 20 10.5 20C11.4862 20 12.2857 19.2004 12.2857 18.2143V12.1429C12.2857 12.0481 12.3233 11.9573 12.3903 11.8903C12.4573 11.8233 12.5481 11.7857 12.6429 11.7857H18.7143C19.7004 11.7857 20.5 10.9862 20.5 10C20.5 9.01384 19.7004 8.21429 18.7143 8.21429Z" fill="white"/>
</svg>
