<svg width="24" height="24" viewBox="0 0 24 24" fill="none" xmlns="http://www.w3.org/2000/svg">
<path d="M7.57127 16.199L4.2315 10.4144L1.6686 11.892C0.0729728 12.8174 -0.475405 14.8585 0.449982 16.458C1.37156 18.0536 3.41274 18.602 5.01218 17.6804L7.57127 16.199ZM18.7749 6.05404C18.8473 6.1759 18.973 6.24445 19.1062 6.24445C19.171 6.24445 19.2357 6.22922 19.2966 6.19494L22.3737 4.41652C22.5564 4.30989 22.6174 4.0776 22.5146 3.8948C22.4636 3.80744 22.3803 3.74366 22.2826 3.71729C22.185 3.69092 22.0809 3.70407 21.9928 3.7539L18.9158 5.53232C18.733 5.63895 18.6683 5.87125 18.7749 6.05404ZM23.6037 8.63218L20.0545 8.78831C19.845 8.79593 19.6813 8.97491 19.6889 9.18436C19.6965 9.39 19.8679 9.54995 20.0697 9.54995H20.0849L23.6342 9.39381C23.8436 9.38619 24.0074 9.20721 23.9997 8.99776C23.9921 8.7845 23.817 8.62837 23.6037 8.63218ZM16.5205 3.69678C16.5852 3.73867 16.6538 3.75771 16.7261 3.75771C16.8518 3.75771 16.9737 3.69678 17.046 3.58253L18.9577 0.585499C19.0121 0.50062 19.0306 0.397634 19.0092 0.29912C18.9878 0.200607 18.9282 0.114605 18.8435 0.0599703C18.8013 0.0329072 18.7542 0.0144842 18.7049 0.00576967C18.6555 -0.00294487 18.6049 -0.00177759 18.556 0.00920386C18.5072 0.0201853 18.4609 0.0407624 18.4201 0.0697419C18.3792 0.0987215 18.3445 0.135527 18.3179 0.178024L16.4062 3.17506C16.3794 3.21679 16.3611 3.26341 16.3523 3.31224C16.3435 3.36108 16.3444 3.41117 16.3551 3.45964C16.3657 3.50811 16.3857 3.554 16.4141 3.5947C16.4425 3.63539 16.4787 3.67008 16.5205 3.69678ZM7.43799 17.1549L5.38919 18.3392C5.115 18.4954 4.82558 18.6134 4.52854 18.7048C4.89412 20.5251 5.82713 22.1855 7.19426 23.4422C7.443 23.6694 7.75785 23.8112 8.09286 23.8468C8.42787 23.8824 8.7655 23.81 9.05646 23.6402C9.07169 23.6326 9.08312 23.625 9.09835 23.6173C9.97042 23.1147 10.1684 21.9341 9.4944 21.1877C8.47006 20.045 7.76129 18.655 7.43799 17.1549ZM12.5333 9.47759C11.2919 7.32597 10.2865 5.20101 9.70385 3.49114C9.37254 2.51244 9.19355 1.73557 9.17071 1.13388C8.39003 2.16208 7.99017 3.85291 7.45703 5.30764C6.82868 7.27646 5.96422 8.83782 4.82558 9.91553L8.30244 15.9401C9.80667 15.4907 11.5927 15.525 13.611 15.9629C15.1457 16.2257 16.8251 16.7322 18.1085 16.5608C15.8731 15.1784 12.9141 10.1326 12.5333 9.47759Z" fill="white"/>
</svg>
