<svg width="52" height="39" viewBox="0 0 52 39" fill="none" xmlns="http://www.w3.org/2000/svg">
<path d="M39.8822 38.6458H28.9313V27.1313H32.5503C33.4681 27.1313 34.0104 26.0461 33.4681 25.2647L26.4282 15.1284C25.9797 14.4773 25.0515 14.4773 24.603 15.1284L17.5632 25.2647C17.0208 26.0461 17.5527 27.1313 18.481 27.1313H22.1V38.6458H9.83496C4.35951 38.3311 0 33.0025 0 27.229C0 23.2461 2.07546 19.7733 5.15214 17.8958C4.87055 17.1036 4.72453 16.2571 4.72453 15.3672C4.72453 11.2975 7.88465 8.00916 11.7957 8.00916C12.6405 8.00916 13.454 8.1611 14.2153 8.45411C16.4785 3.46195 21.3595 0 27.0331 0C34.3754 0.0108525 40.4245 5.86036 41.1128 13.316C46.7552 14.3253 51.0417 19.7624 51.0417 25.9158C51.0417 32.4925 46.119 38.19 39.8822 38.6458Z" fill="#D5D5D5"/>
</svg>
