<svg width="16" height="17" viewBox="0 0 16 17" fill="none" xmlns="http://www.w3.org/2000/svg">
<path d="M8.00003 11.5C7.93436 11.5001 7.86933 11.4872 7.80866 11.4621C7.748 11.4369 7.6929 11.4 7.64653 11.3535L2.64653 6.35353C2.45116 6.15816 2.45116 5.84178 2.64653 5.64653C2.84191 5.45128 3.15828 5.45116 3.35353 5.64653L8.00003 10.293L12.6465 5.64653C12.8419 5.45116 13.1583 5.45116 13.3535 5.64653C13.5488 5.84191 13.5489 6.15828 13.3535 6.35353L8.35353 11.3535C8.30716 11.4 8.25206 11.4369 8.1914 11.4621C8.13073 11.4872 8.0657 11.5001 8.00003 11.5Z" fill="white"/>
</svg>
