<svg width="23" height="5" viewBox="0 0 23 5" fill="none" xmlns="http://www.w3.org/2000/svg">
<path d="M2.26604 4.53209C3.51755 4.53209 4.53209 3.51755 4.53209 2.26604C4.53209 1.01454 3.51755 0 2.26604 0C1.01454 0 0 1.01454 0 2.26604C0 3.51755 1.01454 4.53209 2.26604 4.53209Z" fill="black"/>
<path d="M11.3119 4.53209C12.5634 4.53209 13.578 3.51755 13.578 2.26604C13.578 1.01454 12.5634 0 11.3119 0C10.0604 0 9.0459 1.01454 9.0459 2.26604C9.0459 3.51755 10.0604 4.53209 11.3119 4.53209Z" fill="black"/>
<path d="M20.3588 4.53209C21.6103 4.53209 22.6249 3.51755 22.6249 2.26604C22.6249 1.01454 21.6103 0 20.3588 0C19.1073 0 18.0928 1.01454 18.0928 2.26604C18.0928 3.51755 19.1073 4.53209 20.3588 4.53209Z" fill="black"/>
</svg>
