<svg width="24" height="21" viewBox="0 0 24 21" fill="none" xmlns="http://www.w3.org/2000/svg">
<path d="M23.9553 3.4111C23.8511 2.7142 23.5006 2.07771 22.9674 1.61701C22.4342 1.15631 21.7536 0.901904 21.0489 0.899902H2.95132C2.24667 0.901904 1.56605 1.15631 1.03285 1.61701C0.499652 2.07771 0.149164 2.7142 0.0449219 3.4111L12.0001 11.1471L23.9553 3.4111Z" fill="white"/>
<path d="M12.4344 12.7721C12.305 12.8558 12.1541 12.9003 12 12.9003C11.8459 12.9003 11.695 12.8558 11.5656 12.7721L0 5.28889V17.1489C0.000847034 17.9313 0.312048 18.6815 0.865322 19.2348C1.4186 19.788 2.16875 20.0992 2.9512 20.1001H21.0488C21.8312 20.0992 22.5814 19.788 23.1347 19.2348C23.688 18.6815 23.9992 17.9313 24 17.1489V5.28809L12.4344 12.7721Z" fill="white"/>
</svg>
