<svg width="22" height="25" viewBox="0 0 22 25" fill="none" xmlns="http://www.w3.org/2000/svg">
<path d="M15.2773 10.8125C15.2773 10.2947 14.8576 9.875 14.3398 9.875H4.68359C4.16581 9.875 3.74609 10.2947 3.74609 10.8125C3.74609 11.3303 4.16581 11.75 4.68359 11.75H14.3398C14.8576 11.75 15.2773 11.3303 15.2773 10.8125ZM4.68359 13.625C4.16581 13.625 3.74609 14.0447 3.74609 14.5625C3.74609 15.0803 4.16581 15.5 4.68359 15.5H10.5482C11.066 15.5 11.4857 15.0803 11.4857 14.5625C11.4857 14.0447 11.066 13.625 10.5482 13.625H4.68359Z" fill="white"/>
<path d="M6.88542 22.625H3.75C2.71613 22.625 1.875 21.7839 1.875 20.75V4.25C1.875 3.21613 2.71613 2.375 3.75 2.375H15.276C16.3099 2.375 17.151 3.21613 17.151 4.25V10.0156C17.151 10.5334 17.5708 10.9531 18.0885 10.9531C18.6063 10.9531 19.026 10.5334 19.026 10.0156V4.25C19.026 2.18225 17.3438 0.5 15.276 0.5H3.75C1.68225 0.5 0 2.18225 0 4.25V20.75C0 22.8177 1.68225 24.5 3.75 24.5H6.88542C7.4032 24.5 7.82292 24.0803 7.82292 23.5625C7.82292 23.0447 7.4032 22.625 6.88542 22.625Z" fill="white"/>
<path d="M20.6879 14.0737C19.5913 12.9771 17.807 12.977 16.7112 14.0729L11.5641 19.2086C11.4548 19.3176 11.3742 19.452 11.3293 19.5997L10.2084 23.29C10.1596 23.4506 10.1548 23.6214 10.1946 23.7845C10.2343 23.9476 10.3171 24.097 10.4344 24.2171C10.5516 24.3373 10.6989 24.4238 10.861 24.4675C11.0231 24.5113 11.1939 24.5107 11.3557 24.4659L15.1397 23.4177C15.2954 23.3746 15.4373 23.292 15.5517 23.1778L20.6879 18.0512C21.7845 16.9546 21.7845 15.1704 20.6879 14.0737ZM14.4016 21.6766L12.4979 22.204L13.055 20.3698L16.5279 16.9046L17.854 18.2307L14.4016 21.6766ZM19.3628 16.7248L19.1811 16.9061L17.8553 15.5802L18.0363 15.3996C18.4018 15.0341 18.9966 15.0341 19.3621 15.3996C19.7277 15.7651 19.7277 16.3599 19.3628 16.7248ZM14.3398 6.125H4.68359C4.16581 6.125 3.74609 6.54472 3.74609 7.0625C3.74609 7.58028 4.16581 8 4.68359 8H14.3398C14.8576 8 15.2773 7.58028 15.2773 7.0625C15.2773 6.54472 14.8576 6.125 14.3398 6.125Z" fill="white"/>
</svg>
