<svg width="24" height="24" viewBox="0 0 24 24" fill="none" xmlns="http://www.w3.org/2000/svg">
<path d="M18.8767 11.5243C18.2668 11.463 16.925 11.463 16.925 10.6025C16.925 9.43501 18.6326 7.8986 21.377 6.2392C22.2306 5.68594 23.9998 4.82578 23.9998 3.65795C23.9998 2.7361 23.3287 2.06024 21.9261 2.24453C20.5843 2.42882 18.5106 3.35067 15.7665 5.68594C12.9 8.08289 10.2168 12.0776 10.2168 16.0106C10.2168 20.0052 12.9 23.9999 17.2304 23.9999C20.7063 23.9999 23.6949 21.3573 23.6949 17.7313C23.6945 14.9657 21.804 11.7703 18.8767 11.5243Z" fill="white"/>
<path d="M10.3036 9.79633C9.79374 9.52479 9.23488 9.35946 8.6603 9.31019C8.05042 9.24889 6.70862 9.24889 6.70862 8.38834C6.70862 7.2209 8.41619 5.68449 11.1606 4.02509C12.0146 3.47182 13.783 2.61167 13.783 1.44384C13.783 0.52199 13.1119 -0.153876 11.7093 0.0304159C10.3675 0.214708 8.29376 1.13656 5.54971 3.47182C2.6836 5.86878 0 9.86345 0 13.7968C0 17.7915 2.68322 21.7862 7.01356 21.7862C8.00356 21.7873 8.98169 21.5689 9.87851 21.1464C9.02414 19.5898 8.56866 17.7888 8.56866 16.011C8.56905 13.8158 9.27056 11.687 10.3036 9.79633Z" fill="white"/>
</svg>
