<svg width="128" height="128" viewBox="0 0 128 128" fill="none" xmlns="http://www.w3.org/2000/svg">
<g clip-path="url(#clip0_322_1367)">
<path d="M64 0C28.655 0 0 28.645 0 64C0 99.355 28.655 128 64 128C99.345 128 128 99.3375 128 64C128 28.6625 99.345 0 64 0Z" fill="#2AD352"/>
<path d="M5.94351e-05 64.0001C-0.0143879 74.5787 2.60524 84.9945 7.62256 94.3076C14.0148 96.1844 20.643 97.1349 27.3051 97.1301C65.7801 97.1301 96.9701 65.9401 96.9701 27.4651C96.9758 20.6974 95.9955 13.9651 94.0601 7.48009C84.808 2.55189 74.4828 -0.0173684 64.0001 8.83651e-05C28.6551 8.83651e-05 5.94351e-05 28.6451 5.94351e-05 64.0001Z" fill="#74DA7F"/>
<path d="M100.5 53.3949L62.0323 93.7924C60.984 94.8922 59.7245 95.769 58.3292 96.3704C56.934 96.9718 55.4317 97.2854 53.9123 97.2924H53.8623C52.3514 97.2928 50.8559 96.9896 49.4644 96.4008C48.073 95.8121 46.814 94.9497 45.7623 93.8649L25.3498 72.8399C24.2951 71.7812 23.4612 70.5236 22.8965 69.14C22.3317 67.7565 22.0474 66.2745 22.06 64.7802C22.0726 63.2859 22.3818 61.8089 22.9698 60.4351C23.5578 59.0612 24.4128 57.8178 25.4851 56.7771C26.5575 55.7363 27.8259 54.9189 29.2168 54.3723C30.6076 53.8257 32.0931 53.5608 33.5872 53.5929C35.0812 53.625 36.554 53.9536 37.92 54.5594C39.2861 55.1653 40.5182 56.0365 41.5448 57.1224L53.7823 69.7274L84.1548 37.8324C85.1723 36.7414 86.3959 35.863 87.755 35.2479C89.1141 34.6329 90.5817 34.2934 92.0728 34.2491C93.5639 34.2048 95.049 34.4566 96.4422 34.99C97.8354 35.5233 99.1091 36.3275 100.189 37.3562C101.27 38.3849 102.136 39.6176 102.737 40.9829C103.338 42.3483 103.662 43.8193 103.691 45.3108C103.72 46.8023 103.452 48.2847 102.905 49.6723C102.357 51.06 101.54 52.3252 100.5 53.3949Z" fill="white"/>
</g>
<defs>
<clipPath id="clip0_322_1367">
<rect width="128" height="128" fill="white"/>
</clipPath>
</defs>
</svg>
