<svg width="19" height="20" viewBox="0 0 19 20" fill="none" xmlns="http://www.w3.org/2000/svg">
<path d="M1.92988 5.85938L2.96773 18.3881C3.04211 19.2916 3.81172 20 4.71867 20H14.2814C15.1883 20 15.9579 19.2916 16.0323 18.3881L17.0701 5.85938H1.92988ZM6.56977 17.6562C6.26305 17.6562 6.005 17.4177 5.98555 17.1069L5.39961 7.65379C5.37957 7.33051 5.62504 7.05242 5.94777 7.03238C6.2825 7.00891 6.54859 7.25727 6.56918 7.58055L7.15512 17.0337C7.17586 17.3684 6.91098 17.6562 6.56977 17.6562ZM10.0859 17.0703C10.0859 17.3942 9.82387 17.6562 9.5 17.6562C9.17613 17.6562 8.91406 17.3942 8.91406 17.0703V7.61719C8.91406 7.29332 9.17613 7.03125 9.5 7.03125C9.82387 7.03125 10.0859 7.29332 10.0859 7.61719V17.0703ZM13.6004 7.65383L13.0145 17.107C12.9952 17.4145 12.7388 17.6709 12.393 17.6551C12.0703 17.6351 11.8248 17.357 11.8449 17.0337L12.4308 7.58059C12.4509 7.2573 12.7341 7.02211 13.0522 7.03242C13.375 7.05246 13.6204 7.33055 13.6004 7.65383ZM17.1172 2.34375H13.6016V1.75781C13.6016 0.788516 12.813 0 11.8438 0H7.15625C6.18695 0 5.39844 0.788516 5.39844 1.75781V2.34375H1.88281C1.23559 2.34375 0.710938 2.8684 0.710938 3.51562C0.710938 4.16277 1.23559 4.6875 1.88281 4.6875H17.1172C17.7644 4.6875 18.2891 4.16277 18.2891 3.51562C18.2891 2.8684 17.7644 2.34375 17.1172 2.34375ZM12.4297 2.34375H6.57031V1.75781C6.57031 1.43453 6.83297 1.17188 7.15625 1.17188H11.8438C12.167 1.17188 12.4297 1.43453 12.4297 1.75781V2.34375Z" fill="white"/>
</svg>
