<svg width="20" height="20" viewBox="0 0 20 20" fill="none" xmlns="http://www.w3.org/2000/svg">
<g clip-path="url(#clip0_148_1648)">
<path d="M9.98047 19.9961H5.10938C2.88281 19.9922 1.27734 18.3946 1.26562 16.168C1.26172 15.3906 1.26172 14.6133 1.26562 13.836C1.26953 13.0352 1.75391 12.5196 2.5 12.5156C3.24609 12.5117 3.73438 13.0274 3.74219 13.8281C3.74609 14.6172 3.73828 15.4102 3.74609 16.2031C3.75391 17.0313 4.23828 17.5156 5.07422 17.5156H14.9453C15.7773 17.5156 16.2656 17.0313 16.2734 16.2031C16.2773 15.4141 16.2695 14.6211 16.2773 13.8281C16.2812 13.0274 16.7695 12.5156 17.5156 12.5156C18.2617 12.5156 18.7539 13.0313 18.7461 13.836C18.7383 14.8477 18.793 15.8711 18.668 16.8672C18.4336 18.6953 16.8789 19.9844 15.0273 19.9922C13.3398 20.0039 11.6602 19.9961 9.98047 19.9961Z" fill="white"/>
<path d="M8.76139 4.26562C8.57389 4.44141 8.46061 4.53906 8.35905 4.64062C7.56608 5.44141 6.78093 6.24609 5.98405 7.03906C5.41764 7.60547 4.63249 7.64453 4.12468 7.15234C3.61686 6.66016 3.63639 5.84766 4.19108 5.28516C5.80827 3.66016 7.42936 2.03906 9.05436 0.421875C9.62858 -0.148437 10.3747 -0.148437 10.945 0.421875C12.5817 2.04688 14.2106 3.67578 15.8356 5.3125C16.3708 5.85156 16.3747 6.66406 15.8747 7.14844C15.3747 7.63281 14.5856 7.60938 14.0426 7.07031C13.2341 6.26562 12.4411 5.44922 11.6403 4.64062C11.5387 4.53516 11.4255 4.4375 11.2614 4.28516C11.2497 4.50781 11.238 4.65234 11.238 4.80078C11.238 7.35547 11.2419 9.91406 11.2341 12.4688C11.2301 13.4297 10.3903 14 9.51139 13.6562C9.02702 13.4688 8.76139 13.0469 8.76139 12.4297C8.75749 9.90234 8.75749 7.375 8.76139 4.84375V4.26562Z" fill="white"/>
</g>
<defs>
<clipPath id="clip0_148_1648">
<rect width="20" height="20" fill="white"/>
</clipPath>
</defs>
</svg>
