<svg width="24" height="25" viewBox="0 0 24 25" fill="none" xmlns="http://www.w3.org/2000/svg">
<path d="M23.3529 10.9388L23.3513 10.9372L13.5612 1.14748C13.1439 0.729922 12.589 0.5 11.9989 0.5C11.4088 0.5 10.854 0.729781 10.4365 1.1473L0.651482 10.932C0.648201 10.9353 0.64492 10.9388 0.641639 10.9421C-0.21533 11.804 -0.21383 13.2023 0.645857 14.062C1.03858 14.455 1.55734 14.6825 2.11197 14.7064C2.13447 14.7086 2.1572 14.7096 2.18008 14.7096H2.57026V21.9143C2.57026 23.34 3.73023 24.5 5.15626 24.5H8.98642C9.37464 24.5 9.68954 24.1852 9.68954 23.7969V18.1484C9.68954 17.4979 10.2188 16.9687 10.8693 16.9687H13.1285C13.7791 16.9687 14.3082 17.4979 14.3082 18.1484V23.7969C14.3082 24.1852 14.623 24.5 15.0114 24.5H18.8416C20.2676 24.5 21.4276 23.34 21.4276 21.9144V14.7097H21.7894C22.3794 14.7097 22.9342 14.4799 23.3518 14.0624C24.2125 13.2013 24.2128 11.8005 23.3529 10.9388Z" fill="#00719D"/>
</svg>
